<?xml version="1.0" encoding="UTF-8" standalone="no"?>
<!-- Created with Inkscape (http://www.inkscape.org/) -->

<svg
        version="1.1"
        id="svg1"
        width="433"
        height="51"
        viewBox="0 0 1732 204"
        sodipodi:docname="apache-maven-project-asf-light-theme.svg"
        xml:space="preserve"
        inkscape:version="1.4.3 (0d15f75, 2025-12-25)"
        inkscape:export-filename="apache-maven-project-asf-light-theme.svg"
        inkscape:export-xdpi="96"
        inkscape:export-ydpi="96"
        xmlns:inkscape="http://www.inkscape.org/namespaces/inkscape"
        xmlns:sodipodi="http://sodipodi.sourceforge.net/DTD/sodipodi-0.dtd"
        xmlns="http://www.w3.org/2000/svg"
        xmlns:svg="http://www.w3.org/2000/svg"><defs
     id="defs1"><linearGradient
       id="swatch17"
       inkscape:swatch="solid"><stop
         style="stop-color:#ffffff;stop-opacity:1;"
         offset="0"
         id="stop17" /></linearGradient></defs><sodipodi:namedview
        id="namedview1"
        pagecolor="#ffffff"
        bordercolor="#000000"
        borderopacity="0.25"
        inkscape:showpageshadow="2"
        inkscape:pageopacity="0.0"
        inkscape:pagecheckerboard="0"
        inkscape:deskcolor="#d1d1d1"
        inkscape:zoom="0.5"
        inkscape:cx="657"
        inkscape:cy="319"
        inkscape:window-width="2560"
        inkscape:window-height="1369"
        inkscape:window-x="-8"
        inkscape:window-y="-8"
        inkscape:window-maximized="1"
        inkscape:current-layer="g1"
        showgrid="false"><inkscape:page
       x="0"
       y="0"
       width="1732"
       height="204"
       id="page2"
       margin="0"
       bleed="0" /></sodipodi:namedview><g
        inkscape:groupmode="layer"
        inkscape:label="Image"
        id="g1"
        inkscape:export-filename="apache-maven-project-asf-light-theme.svg"
        inkscape:export-xdpi="96"
        inkscape:export-ydpi="96"><path
       style="font-weight:bold;font-size:122px;font-family:Verdana;-inkscape-font-specification:'Verdana Bold';white-space:pre;inline-size:1539.15;fill:#003063;fill-opacity:1"
       d="M 303.66817,114.60936 H 280.01876 L 273.88301,95.15773 H 241.0002 l -6.13574,19.45163 H 211.81075 L 244.57442,18.385162 H 270.9045 Z M 268.34297,77.515545 257.44161,43.006661 246.54024,77.515545 Z m 116.69825,-0.19387 q 0,8.982645 -2.56153,16.349714 -2.50195,7.367061 -6.6123,12.149191 -4.28906,5.04062 -9.70996,7.62555 -5.4209,2.58495 -11.61621,2.58495 -5.71875,0 -9.70996,-1.3571 -3.99122,-1.29247 -8.16114,-3.68353 v 30.24374 H 315.22481 V 42.037316 h 21.44531 v 7.560938 q 4.94434,-4.265142 10.06739,-6.914708 5.18261,-2.649556 11.91406,-2.649556 12.50976,0 19.41992,9.952002 6.96973,9.952001 6.96973,27.335683 z m -22.10059,0.452362 q 0,-10.598232 -3.33594,-15.380358 -3.33593,-4.782137 -10.54394,-4.782137 -3.03809,0 -6.25489,1.03398 -3.21679,0.969345 -6.13574,2.843424 v 36.512208 q 2.14453,0.904722 4.58692,1.163225 2.44238,0.258492 4.82519,0.258492 8.51856,0 12.68848,-5.363744 4.16992,-5.428367 4.16992,-16.28509 z m 78.09668,17.900677 V 80.552849 q -4.34863,0.387738 -9.41211,1.098591 -5.06348,0.646231 -7.68457,1.550964 -3.2168,1.098591 -4.94434,3.231162 -1.66796,2.067948 -1.66796,5.49299 0,2.261817 0.35742,3.683535 0.35742,1.421707 1.78711,2.714178 1.37011,1.292472 3.27636,1.938701 1.90625,0.58161 5.95704,0.58161 3.21679,0 6.49316,-1.421709 3.33594,-1.421717 5.83789,-3.748157 z m 0,11.244466 q -1.72754,1.42171 -4.28906,3.42504 -2.56153,2.00332 -4.8252,3.16654 -3.15722,1.55096 -6.55273,2.26183 -3.39551,0.77547 -7.44629,0.77547 -9.53125,0 -15.96485,-6.39771 -6.43359,-6.39771 -6.43359,-16.349715 0,-7.948676 3.27637,-12.989294 3.27637,-5.040629 9.29297,-7.948676 5.95703,-2.908059 14.77343,-4.135896 8.81641,-1.227849 18.28809,-1.809456 v -0.387738 q 0,-6.009974 -4.52734,-8.271791 -4.52735,-2.32644 -13.34375,-2.32644 -5.30176,0 -11.31836,2.067947 -6.0166,2.003325 -8.6377,3.101917 h -1.96582 V 43.58828 q 3.39551,-0.969357 11.02051,-2.261822 7.68457,-1.357091 15.36914,-1.357091 18.28809,0 26.38965,6.139222 8.16113,6.074597 8.16113,19.128514 v 49.372257 h -21.2666 z m 75.83301,9.62888 q -8.75684,0 -16.02442,-2.26182 -7.208,-2.26181 -12.56933,-6.97933 -5.30176,-4.7175 -8.22071,-11.890688 -2.91894,-7.1732 -2.91894,-16.802075 0,-10.14587 3.09766,-17.512939 3.15722,-7.367058 8.75683,-12.213818 5.4209,-4.588257 12.50977,-6.720828 7.08886,-2.132572 14.71386,-2.132572 6.85059,0 12.62891,1.615585 5.77832,1.615589 10.78223,4.200522 v 19.839368 h -3.03809 q -1.25098,-1.163215 -3.03808,-2.714178 -1.72754,-1.550964 -4.28907,-3.037294 -2.44238,-1.421717 -5.36133,-2.326451 -2.91894,-0.969345 -6.79101,-0.969345 -8.57813,0 -13.22461,5.945351 -4.58691,5.880729 -4.58691,16.026599 0,10.468985 4.70605,15.897342 4.76563,5.428367 13.46289,5.428367 4.05078,0 7.26758,-0.969357 3.27637,-1.033968 5.4209,-2.391063 2.02539,-1.29246 3.57422,-2.714178 1.54882,-1.421717 2.85937,-2.778801 h 3.03809 v 19.839373 q -5.06348,2.58493 -10.60352,4.07127 -5.48047,1.55096 -12.15234,1.55096 z m 104.12894,-1.9387 H 599.43477 V 78.614147 q 0,-4.394399 -0.41699,-8.724164 -0.41699,-4.394387 -1.42969,-6.462335 -1.19141,-2.391063 -3.51465,-3.489655 -2.26367,-1.098602 -6.37402,-1.098602 -2.91895,0 -5.95703,1.033979 -2.97852,1.033969 -6.49317,3.295786 V 114.60936 H 553.80391 V 14.055396 h 21.44531 v 35.995219 q 5.71875,-4.84676 10.96094,-7.431692 5.30176,-2.584933 11.73535,-2.584933 10.84175,0 16.91795,6.850075 6.1358,6.850085 6.1358,20.485609 z m 85.6025,-31.988563 h -49.0859 q 0.4765,8.530283 5.957,13.053917 5.54,4.523636 16.2627,4.523636 6.791,0 13.165,-2.649557 6.3741,-2.649566 10.0674,-5.68686 h 2.3828 v 18.676157 q -7.2676,3.16655 -13.7011,4.58825 -6.4336,1.42172 -14.2373,1.42172 -20.1348,0 -30.8575,-9.82275 -10.7226,-9.822758 -10.7226,-27.981917 0,-17.9653 10.1269,-28.434286 10.1865,-10.53361 27.8789,-10.53361 16.3223,0 24.543,8.982647 8.2207,8.918021 8.2207,25.720107 z m -21.3262,-13.635536 q -0.1787,-7.302446 -3.3359,-10.98597 -3.1572,-3.683534 -9.8291,-3.683534 -6.1953,0 -10.1865,3.489665 -3.9912,3.489655 -4.4678,11.179839 z M 857.6125,114.60936 H 834.8567 V 50.179861 L 818.4153,91.991179 H 802.6291 L 786.1877,50.179861 V 114.60936 H 764.62326 V 18.385162 h 26.56834 l 19.9561,48.273659 19.8965,-48.273659 h 26.5683 z M 919.5657,95.674714 V 80.552849 q -4.3487,0.387738 -9.4121,1.098591 -5.0635,0.646231 -7.6846,1.550964 -3.2168,1.098591 -4.9443,3.231162 -1.668,2.067948 -1.668,5.49299 0,2.261817 0.3574,3.683535 0.3574,1.421707 1.7871,2.714178 1.3701,1.292472 3.2764,1.938701 1.9062,0.58161 5.957,0.58161 3.2168,0 6.4932,-1.421709 3.3359,-1.421717 5.8379,-3.748157 z m 0,11.244466 q -1.7276,1.42171 -4.2891,3.42504 -2.5615,2.00332 -4.8252,3.16654 -3.1572,1.55096 -6.5527,2.26183 -3.3955,0.77547 -7.4463,0.77547 -9.5313,0 -15.9649,-6.39771 -6.4335,-6.39771 -6.4335,-16.349715 0,-7.948676 3.2763,-12.989294 3.2764,-5.040629 9.293,-7.948676 5.957,-2.908059 14.7734,-4.135896 8.8164,-1.227849 18.2881,-1.809456 v -0.387738 q 0,-6.009974 -4.5273,-8.271791 -4.5274,-2.32644 -13.3438,-2.32644 -5.3017,0 -11.3183,2.067947 -6.0166,2.003325 -8.6377,3.101917 h -1.9659 V 43.58828 q 3.3956,-0.969357 11.0206,-2.261822 7.6845,-1.357091 15.3691,-1.357091 18.2881,0 26.3896,6.139222 8.1612,6.074597 8.1612,19.128514 v 49.372257 h -21.2666 z m 108.3584,-64.881864 -25.794,72.572044 H 977.8254 L 952.2102,42.037316 h 22.6963 l 15.4883,49.88924 15.3095,-49.88924 z m 77.7988,40.583481 h -49.0859 q 0.4765,8.530283 5.957,13.053917 5.54,4.523636 16.2627,4.523636 6.791,0 13.165,-2.649557 6.374,-2.649566 10.0674,-5.68686 h 2.3828 v 18.676157 q -7.2676,3.16655 -13.7012,4.58825 -6.4335,1.42172 -14.2373,1.42172 -20.1347,0 -30.8574,-9.82275 -10.7226,-9.822758 -10.7226,-27.981917 0,-17.9653 10.1269,-28.434286 10.1865,-10.53361 27.8789,-10.53361 16.3223,0 24.543,8.982647 8.2207,8.918021 8.2207,25.720107 z m -21.3262,-13.635536 q -0.1787,-7.302446 -3.3359,-10.98597 -3.1572,-3.683534 -9.8291,-3.683534 -6.1953,0 -10.1865,3.489665 -3.9912,3.489655 -4.4678,11.179839 z m 103.6524,45.624099 h -21.5645 V 78.614147 q 0,-4.394399 -0.417,-8.724164 -0.417,-4.394387 -1.4297,-6.462335 -1.1914,-2.391063 -3.5146,-3.489655 -2.2637,-1.098602 -6.374,-1.098602 -2.919,0 -5.9571,1.033979 -2.9785,1.033969 -6.4931,3.295786 v 51.440204 h -21.4453 V 42.037316 h 21.4453 v 8.013299 q 5.7187,-4.84676 10.9609,-7.431692 5.3018,-2.584933 11.7354,-2.584933 10.8418,0 16.9179,6.850075 6.1358,6.850085 6.1358,20.485609 z m 135.8203,-65.851216 q 0,6.462335 -2.085,12.666179 -2.0849,6.13922 -5.957,10.339739 -5.3018,5.686859 -11.8545,8.594907 -6.4932,2.908058 -16.2031,2.908058 h -14.2373 v 31.342333 h -22.875 V 18.385162 h 37.6484 q 8.459,0 14.2373,1.615583 5.8379,1.550962 10.3057,4.717506 5.3613,3.81278 8.1611,9.758129 2.8594,5.94535 2.8594,14.281764 z m -23.6494,0.581607 q 0,-4.071273 -2.0254,-6.97932 -2.0254,-2.972675 -4.7061,-4.135894 -3.5742,-1.550962 -6.9697,-1.680209 -3.3955,-0.193869 -9.0547,-0.193869 h -3.9316 V 65.17248 h 6.5527 q 5.8379,0 9.5908,-0.775476 3.8125,-0.775487 6.374,-3.101927 2.2041,-2.067948 3.1573,-4.911372 1.0127,-2.908058 1.0127,-7.043954 z m 87.1513,14.863384 h -1.9062 q -1.3701,-0.516995 -4.4082,-0.775487 -3.0381,-0.258492 -5.0635,-0.258492 -4.5869,0 -8.1016,0.64623 -3.5146,0.646241 -7.5654,2.197205 v 48.596769 h -21.4453 V 42.037316 h 21.4453 V 52.70017 q 7.0889,-6.591581 12.3311,-8.724152 5.2422,-2.197196 9.6504,-2.197196 1.1318,0 2.5615,0.06462 1.4297,0.06462 2.5019,0.193871 z m 80.5391,14.152509 q 0,17.900677 -9.6504,28.240416 -9.5908,10.27512 -26.9853,10.27512 -17.3946,0 -27.045,-10.27512 -9.5908,-10.339739 -9.5908,-28.240416 0,-18.029913 9.6504,-28.305029 9.71,-10.275118 26.9854,-10.275118 17.5136,0 27.0449,10.339741 9.5908,10.339739 9.5908,28.240406 z m -26.3897,17.642185 q 2.085,-2.778801 3.0977,-6.656205 1.0723,-3.942026 1.0723,-10.856723 0,-6.397724 -1.0723,-10.727488 -1.0723,-4.329765 -2.9785,-6.914697 -1.9063,-2.649555 -4.5869,-3.748158 -2.6807,-1.098591 -5.7783,-1.098591 -3.0977,0 -5.5401,0.904722 -2.3828,0.904733 -4.5869,3.618912 -1.9658,2.520309 -3.1572,6.914696 -1.1319,4.394388 -1.1319,11.050604 0,5.94534 1.0127,10.339739 1.0127,4.329765 2.9786,6.97932 1.9062,2.520309 4.5273,3.683534 2.6807,1.163216 6.0762,1.163216 2.9189,0 5.54,-1.033969 2.6807,-1.098603 4.5273,-3.618912 z m 70.71,19.904001 q 0,12.27844 -6.9697,19.12852 -6.9697,6.91469 -17.9307,6.91469 -5.8379,0 -10.6631,-0.5816 -4.7656,-0.51699 -6.9697,-1.09861 V 123.592 h 1.668 q 1.7871,0.64625 4.4677,1.09861 2.6807,0.45236 4.2295,0.45236 6.1954,0 8.459,-4.00665 2.2637,-4.00665 2.2637,-13.18317 V 57.805422 h -12.6885 V 42.037316 h 34.1338 z m 0,-84.204254 h -22.8154 v -17.64218 h 22.8154 z m 86.0791,50.923221 h -49.0859 q 0.4765,8.530283 5.957,13.053917 5.54,4.523636 16.2627,4.523636 6.791,0 13.165,-2.649557 6.3741,-2.649566 10.0674,-5.68686 h 2.3828 v 18.676157 q -7.2675,3.16655 -13.7011,4.58825 -6.4336,1.42172 -14.2373,1.42172 -20.1348,0 -30.8575,-9.82275 -10.7226,-9.822758 -10.7226,-27.981917 0,-17.9653 10.1269,-28.434286 10.1866,-10.53361 27.8789,-10.53361 16.3223,0 24.543,8.982647 8.2207,8.918021 8.2207,25.720107 z m -21.3262,-13.635536 q -0.1787,-7.302446 -3.3359,-10.98597 -3.1572,-3.683534 -9.8291,-3.683534 -6.1953,0 -10.1865,3.489665 -3.9912,3.489655 -4.4678,11.179839 z m 71.3057,47.562799 q -8.7568,0 -16.0244,-2.26182 -7.208,-2.26181 -12.5693,-6.97933 -5.3018,-4.7175 -8.2207,-11.890688 -2.919,-7.1732 -2.919,-16.802075 0,-10.14587 3.0977,-17.512939 3.1572,-7.367058 8.7568,-12.213818 5.4209,-4.588257 12.5098,-6.720828 7.0888,-2.132572 14.7138,-2.132572 6.8506,0 12.6289,1.615585 5.7784,1.615589 10.7823,4.200522 v 19.839368 h -3.0381 q -1.251,-1.163215 -3.0381,-2.714178 -1.7275,-1.550964 -4.2891,-3.037294 -2.4424,-1.421717 -5.3613,-2.326451 -2.9189,-0.969345 -6.791,-0.969345 -8.5781,0 -13.2246,5.945351 -4.5869,5.880729 -4.5869,16.026599 0,10.468985 4.706,15.897342 4.7656,5.428367 13.4629,5.428367 4.0508,0 7.2676,-0.969357 3.2764,-1.033968 5.4209,-2.391063 2.0254,-1.29246 3.5742,-2.714178 1.5488,-1.421717 2.8594,-2.778801 h 3.0381 v 19.839373 q -5.0635,2.58493 -10.6036,4.07127 -5.4804,1.55096 -12.1523,1.55096 z m 79.7051,-2.58493 q -3.4551,0.96934 -7.3272,1.48633 -3.872,0.58162 -9.4716,0.58162 -12.5098,0 -18.6456,-5.49299 -6.0761,-5.49299 -6.0761,-18.805403 V 57.805422 h -8.8164 V 42.037316 h 8.8164 V 21.293213 h 21.4453 v 20.744103 h 20.0752 v 15.768106 h -20.0752 v 25.720097 q 0,3.812781 0.06,6.656205 0.06,2.843435 0.9531,5.105252 0.834,2.261817 2.9189,3.6189 2.1446,1.292474 6.1953,1.292474 1.668,0 4.3487,-0.775479 2.7402,-0.775487 3.8125,-1.421717 h 1.7871 z"
       id="text9"
       inkscape:label="title"
       aria-label="Apache Maven Project" /><path
        style="font-weight:bold;font-size:53.3333px;font-family:'Microsoft JhengHei';-inkscape-font-specification:'Microsoft JhengHei Bold';letter-spacing:11px;fill:#003063;fill-opacity:1"
        d="m 155.9862,187.492 h -6.11979 v -16.5104 q 0,-8.07291 -5.96354,-8.07291 -3.02083,0 -5.02604,2.3177 -2.0052,2.31771 -2.0052,5.91146 V 187.492 h -6.11979 v -42.63018 h 6.11979 v 18.43749 h 0.1302 q 3.28125,-5.28645 9.24479,-5.28645 9.73958,0 9.73958,11.77082 z m 33.89061,-0.3125 q -1.69271,0.96355 -4.86979,0.96355 -8.20312,0 -8.20312,-8.90625 v -15.70311 h -4.86979 v -4.84375 h 4.86979 v -6.74479 l 6.09375,-1.84896 v 8.59375 h 6.97916 v 4.84375 h -6.97916 v 14.6354 q 0,2.68229 0.9375,3.88021 0.96354,1.19792 3.07291,1.19792 1.64063,0 2.96875,-0.9375 z m 31.54686,0 q -1.69271,0.96355 -4.86979,0.96355 -8.20312,0 -8.20312,-8.90625 v -15.70311 h -4.86979 v -4.84375 h 4.86979 v -6.74479 l 6.09375,-1.84896 v 8.59375 h 6.97916 v 4.84375 h -6.97916 v 14.6354 q 0,2.68229 0.9375,3.88021 0.96354,1.19792 3.07291,1.19792 1.64063,0 2.96875,-0.9375 z m 22.875,-3.5677 v 17.1354 h -6.11979 v -42.05726 h 6.11979 v 4.79166 h 0.13021 q 3.33333,-5.46874 9.68749,-5.46874 5.49479,0 8.64583,3.85416 3.15104,3.82812 3.15104,10.39062 0,7.21354 -3.56771,11.56249 -3.56771,4.34896 -9.55728,4.34896 -5.46875,0 -8.35937,-4.55729 z m -0.0521,-8.25521 q 0,3.35938 2.08334,5.65104 2.08333,2.26563 5.26041,2.26563 3.82812,0 5.9375,-2.91667 2.10937,-2.9427 2.10937,-8.12499 0,-4.45313 -1.95312,-6.875 -1.95313,-2.44791 -5.46875,-2.44791 -3.51562,0 -5.75521,2.55208 -2.21354,2.55208 -2.21354,6.45833 z m 38.08331,5.44271 q 4.03646,2.73437 8.38541,2.73437 5.72917,0 5.72917,-3.54166 0,-1.48438 -1.19792,-2.42187 -1.19791,-0.96355 -5.39062,-2.52604 -4.40104,-1.69271 -5.9375,-3.59375 -1.53645,-1.92708 -1.53645,-4.81771 0,-3.98437 3.33333,-6.30208 3.33333,-2.3177 8.2552,-2.3177 3.77604,0 7.05729,1.24999 v 5.41667 q -3.28125,-2.03125 -7.34375,-2.03125 -2.3177,0 -3.74999,0.96354 -1.4323,0.96354 -1.4323,2.52604 0,1.53646 1.04167,2.42187 1.06771,0.88542 4.86979,2.34375 4.6875,1.71875 6.3802,3.67188 1.71875,1.92708 1.71875,4.8177 0,4.08854 -3.33333,6.43229 -3.33333,2.34375 -8.74999,2.34375 -4.63542,0 -8.09896,-1.61459 z m 36.1302,-18.95832 q 0,-1.58854 1.14583,-2.63021 1.14584,-1.04166 2.73438,-1.04166 1.5625,0 2.70833,1.04166 1.14583,1.01563 1.14583,2.63021 0,1.5625 -1.11979,2.6302 -1.11979,1.04167 -2.78646,1.04167 -1.58854,0 -2.70833,-1.04167 -1.11979,-1.0677 -1.11979,-2.6302 z m 0,22.63019 q 0,-1.58854 1.14583,-2.6302 1.14584,-1.04167 2.73438,-1.04167 1.5625,0 2.70833,1.04167 1.14583,1.01562 1.14583,2.6302 0,1.51042 -1.09375,2.60417 -1.09375,1.06771 -2.8125,1.06771 -1.58854,0 -2.70833,-1.04167 -1.11979,-1.06771 -1.11979,-2.63021 z m 45.68748,-37.31768 -19.45311,47.03122 h -5.57291 l 19.40103,-47.03122 z m 34.54166,0 -19.45311,47.03122 h -5.57292 l 19.40103,-47.03122 z m 57.43225,40.33851 h -6.11979 v -16.5104 q 0,-4.27083 -1.3802,-6.17187 -1.38021,-1.90104 -4.40104,-1.90104 -2.60417,0 -4.47917,2.39583 -1.87499,2.39583 -1.87499,5.85937 V 187.492 h -6.09375 v -16.92707 q 0,-7.65624 -5.85937,-7.65624 -2.70833,0 -4.50521,2.3177 -1.77083,2.31771 -1.77083,5.98958 V 187.492 h -6.11979 v -28.80206 h 6.11979 v 4.53125 h 0.13021 q 3.09895,-5.20833 9.06249,-5.20833 6.06771,0 8.20312,5.7552 3.22917,-5.7552 9.63541,-5.7552 9.45312,0 9.45312,11.6927 z m 19.80208,-26.87498 q 4.40104,-2.60416 10.18229,-2.60416 10.91145,0 10.91145,11.27603 V 187.492 h -5.9375 v -4.37499 h -0.13021 q -2.9427,5.05208 -8.74999,5.05208 -4.24479,0 -6.69271,-2.29167 -2.42187,-2.29166 -2.42187,-6.17187 0,-8.12499 9.66145,-9.47916 l 8.35937,-1.14583 q 0,-6.43229 -5.65104,-6.43229 -5.18228,0 -9.53124,3.35937 z m 8.82812,13.48958 q -3.125,0.41666 -4.42708,1.58854 -1.27604,1.17187 -1.27604,3.43749 0,1.90104 1.38021,3.125 1.3802,1.19792 3.54166,1.19792 3.07292,0 5.10416,-2.16146 2.03125,-2.1875 2.03125,-5.49479 v -2.55208 z m 55.71351,-15.41666 -11.22395,28.80206 h -6.48437 l -10.67708,-28.80206 h 6.64062 l 6.48438,19.81769 q 0.83333,2.55209 1.01562,4.40104 h 0.13021 q 0.23437,-2.13541 0.9375,-4.27083 l 6.74479,-19.9479 z m 39.28122,16.04166 h -19.79165 q 0.39062,8.72395 8.8802,8.72395 4.79166,0 8.72395,-2.86458 v 5.05208 q -3.85416,2.52604 -10.1302,2.52604 -6.40624,0 -10.02603,-3.90625 -3.61979,-3.90625 -3.61979,-10.93749 0,-6.66667 3.8802,-10.98958 3.90625,-4.32291 9.76562,-4.32291 5.83333,0 9.0625,3.69791 3.2552,3.67187 3.2552,10.1302 z m -5.93749,-4.45313 q -0.026,-3.69791 -1.69271,-5.67708 -1.66667,-1.97916 -4.73958,-1.97916 -2.78646,0 -4.84375,2.10937 -2.05729,2.08333 -2.55208,5.54687 z m 48.60415,17.21353 h -6.09375 v -16.27603 q 0,-8.30728 -6.04166,-8.30728 -3.04687,0 -5.05208,2.3177 -1.97917,2.29167 -1.97917,5.83333 V 187.492 h -6.11978 v -28.80206 h 6.11978 v 4.71354 h 0.13021 q 3.20312,-5.39062 9.375,-5.39062 9.66145,0 9.66145,11.87499 z m 17.69271,-3.02083 q 0,-1.58854 1.14584,-2.6302 1.14583,-1.04167 2.73437,-1.04167 1.5625,0 2.70833,1.04167 1.14583,1.01562 1.14583,2.6302 0,1.51042 -1.09375,2.60417 -1.09375,1.06771 -2.81249,1.06771 -1.58855,0 -2.70834,-1.04167 -1.11979,-1.06771 -1.11979,-2.63021 z m 26.67706,-23.85415 q 4.40104,-2.60416 10.18229,-2.60416 10.91145,0 10.91145,11.27603 V 187.492 h -5.93749 v -4.37499 h -0.13021 q -2.94271,5.05208 -8.75,5.05208 -4.24479,0 -6.6927,-2.29167 -2.42188,-2.29166 -2.42188,-6.17187 0,-8.12499 9.66146,-9.47916 l 8.35937,-1.14583 q 0,-6.43229 -5.65104,-6.43229 -5.18229,0 -9.53125,3.35937 z m 8.82812,13.48958 q -3.12499,0.41666 -4.42708,1.58854 -1.27604,1.17187 -1.27604,3.43749 0,1.90104 1.38021,3.125 1.38021,1.19792 3.54166,1.19792 3.07292,0 5.10417,-2.16146 2.03125,-2.1875 2.03125,-5.49479 v -2.55208 z m 37.48436,9.5052 v 17.1354 h -6.11979 v -42.05726 h 6.11979 v 4.79166 h 0.13021 q 3.33333,-5.46874 9.68749,-5.46874 5.49479,0 8.64583,3.85416 3.15104,3.82812 3.15104,10.39062 0,7.21354 -3.56771,11.56249 -3.5677,4.34896 -9.55728,4.34896 -5.46875,0 -8.35937,-4.55729 z m -0.0521,-8.25521 q 0,3.35938 2.08333,5.65104 2.08333,2.26563 5.26041,2.26563 3.82813,0 5.9375,-2.91667 2.10937,-2.9427 2.10937,-8.12499 0,-4.45313 -1.95312,-6.875 -1.95312,-2.44791 -5.46875,-2.44791 -3.51562,0 -5.7552,2.55208 -2.21354,2.55208 -2.21354,6.45833 z m 39.38542,-14.73957 q 4.40104,-2.60416 10.18228,-2.60416 10.91145,0 10.91145,11.27603 V 187.492 h -5.93749 v -4.37499 h -0.13021 q -2.94271,5.05208 -8.74999,5.05208 -4.24479,0 -6.69271,-2.29167 -2.42187,-2.29166 -2.42187,-6.17187 0,-8.12499 9.66145,-9.47916 l 8.35937,-1.14583 q 0,-6.43229 -5.65104,-6.43229 -5.18229,0 -9.53124,3.35937 z m 8.82812,13.48958 q -3.125,0.41666 -4.42708,1.58854 -1.27604,1.17187 -1.27604,3.43749 0,1.90104 1.3802,3.125 1.38021,1.19792 3.54167,1.19792 3.07291,0 5.10416,-2.16146 2.03125,-2.1875 2.03125,-5.49479 v -2.55208 z m 51.78125,12.16145 q -3.1771,1.90104 -8.151,1.90104 -6.3021,0 -10.2084,-3.98438 -3.9062,-3.98437 -3.9062,-10.41666 0,-7.21353 4.1927,-11.48436 4.1927,-4.27083 11.1719,-4.27083 4.2968,0 6.9531,1.3802 v 5.72917 q -3.0729,-2.21354 -6.6406,-2.21354 -4.2188,0 -6.849,2.83854 -2.6042,2.81249 -2.6042,7.57812 0,4.66145 2.474,7.3177 2.5,2.63021 6.6927,2.63021 3.6458,0 6.875,-2.34375 z m 42.7968,1.22395 h -6.1198 v -16.5104 q 0,-8.07291 -5.9635,-8.07291 -3.0208,0 -5.026,2.3177 -2.0052,2.31771 -2.0052,5.91146 V 187.492 h -6.1198 v -42.63018 h 6.1198 v 18.43749 h 0.1302 q 3.2812,-5.28645 9.2448,-5.28645 9.7395,0 9.7395,11.77082 z m 43.2136,-12.7604 h -19.7917 q 0.3906,8.72395 8.8802,8.72395 4.7917,0 8.724,-2.86458 v 5.05208 q -3.8542,2.52604 -10.1302,2.52604 -6.4063,0 -10.0261,-3.90625 -3.6198,-3.90625 -3.6198,-10.93749 0,-6.66667 3.8802,-10.98958 3.9063,-4.32291 9.7657,-4.32291 5.8333,0 9.0624,3.69791 3.2553,3.67187 3.2553,10.1302 z m -5.9375,-4.45313 q -0.026,-3.69791 -1.6928,-5.67708 -1.6666,-1.97916 -4.7395,-1.97916 -2.7865,0 -4.8438,2.10937 -2.0573,2.08333 -2.5521,5.54687 z m 21.9114,14.1927 q 0,-1.58854 1.1459,-2.6302 1.1458,-1.04167 2.7344,-1.04167 1.5625,0 2.7083,1.04167 1.1458,1.01562 1.1458,2.6302 0,1.51042 -1.0937,2.60417 -1.0938,1.06771 -2.8125,1.06771 -1.5886,0 -2.7084,-1.04167 -1.1198,-1.06771 -1.1198,-2.63021 z m 24.125,-11.11978 q 0,-7.10937 4.0365,-11.22395 4.0625,-4.11458 11.0416,-4.11458 6.5886,0 10.4167,3.98437 3.8281,3.98437 3.8281,10.88541 0,6.95312 -4.0364,11.11978 -4.0365,4.16667 -10.7813,4.16667 -6.6146,0 -10.5729,-4.03646 -3.9323,-4.03645 -3.9323,-10.78124 z m 6.224,-0.13021 q 0,4.73958 2.2916,7.39583 2.3178,2.65625 6.2761,2.65625 8.3073,0 8.3073,-10.23437 0,-4.94792 -2.1354,-7.52604 -2.1355,-2.60416 -6.1719,-2.60416 -4.0365,0 -6.3021,2.76041 -2.2656,2.76042 -2.2656,7.55208 z m 57.25,-8.69791 q -1.3542,-0.88542 -3.5938,-0.88542 -2.9687,0 -4.8177,2.60417 -1.8229,2.60416 -1.8229,6.90103 V 187.492 h -6.1198 v -28.80206 h 6.1198 v 5.72916 h 0.1302 q 2.1354,-6.22395 7.5521,-6.22395 1.6146,0 2.5521,0.36458 z m 40.8176,20.31249 q 0,16.1979 -16.1979,16.1979 -5.4948,0 -9.3229,-1.875 v -5.62499 q 4.7396,2.65625 9.1927,2.65625 10.2083,0 10.2083,-10.44271 v -2.86458 h -0.1041 q -3.1771,5.28646 -9.5573,5.28646 -5.4167,0 -8.6979,-3.85417 -3.2552,-3.8802 -3.2552,-10.33853 0,-7.29166 3.5677,-11.61458 3.5937,-4.34895 9.5573,-4.34895 5.651,0 8.3854,4.45312 h 0.1041 v -3.77604 h 6.1198 z m -6.0677,-14.21875 q 0,-3.20312 -2.1093,-5.4427 -2.1094,-2.26562 -5.2084,-2.26562 -3.776,0 -5.9635,2.86458 -2.1615,2.83854 -2.1615,7.89062 0,4.375 2.0834,7.0052 2.0833,2.60417 5.4948,2.60417 3.4635,0 5.651,-2.57813 2.2135,-2.57812 2.2135,-6.51041 z m 45.4011,-23.46352 -19.4532,47.03122 h -5.5729 l 19.4011,-47.03122 z"
        id="text10"
        inkscape:label="url"
        aria-label="https://maven.apache.org/" /><g
        style="fill:none"
        id="g2"
        transform="matrix(0.16699088,0,0,0.16699088,-4.45857,-0.78258583)"
        inkscape:label="oakleaf"><path
         d="M 340.565,490.125 C 371.984,412.419 407.04,334.865 444.655,266.127 388.506,224.415 334.59,134.468 312.439,94.616 c -7.956,9.04 -13.121,19.453 -15.463,27.923 -20.869,75.364 53.418,166.37 -6.416,133.12 C 240.706,227.952 128.448,167.276 85.6282,227.583 133.585,289.214 259.016,444.273 340.565,490.125 Z"
         fill="#dd552c"
         id="path1" /><path
        d="m 444.655,266.127 c 36.448,-66.604 75.289,-124.937 115.559,-166.9627 0,0 -40.165,58.1487 -97.534,174.3907 34.744,9.57 133.693,29.207 271.519,-6.401 3.389,-25.051 -13.45,-52.606 -97.361,-61.831 -54.781,-6.016 65.754,-130.8333 -21.566,-189.8648 -2.819,-1.9092 -5.59,-3.5937 -8.305,-5.1018 C 604.04,9.30555 600.948,8.34295 597.648,7.48463 495.667,-19.1313 481.532,153.824 440.837,116.644 375.076,56.5612 333.568,70.5992 312.439,94.616 c 22.151,39.852 76.067,129.799 132.216,171.511 z"
        fill="#f79a23"
        id="path2" /><path
        d="M 258.543,714.009 C 281.565,645.031 309.259,567.534 340.565,490.125 259.016,444.273 133.585,289.214 85.6282,227.583 77.0666,239.632 71.2159,256.437 69.267,279.419 58.8087,402.865 186.137,494.256 160.753,510.949 127.177,533.032 60.3486,457.902 34.0103,505.638 72.1864,554.691 149.95,643.322 258.543,714.009 Z"
        fill="#d22128"
        id="path3" /><path
        d="m 611.342,447.778 c -64.47,-22.998 67.37,-84.677 110.181,-150.109 5.478,-8.367 11.14,-19.18 12.676,-30.515 -137.826,35.608 -236.775,15.971 -271.519,6.401 -29.698,60.187 -63.993,136.032 -99.758,227.479 37.249,15.931 189.344,74.778 404.172,75.083 36.119,-94.094 -94.566,-106.52 -155.752,-128.339 z"
        fill="#dd552c"
        id="path4" /><path
        d="m 283.454,726.427 c 37.883,11.808 163.407,47.079 296.718,41.769 17.909,-48.499 -49.048,-53.232 -54.501,-92.129 -4.223,-30.097 176.207,25.292 234.261,-84.147 2.935,-5.535 5.225,-10.757 7.162,-15.803 -214.828,-0.305 -366.923,-59.152 -404.173,-75.083 -26.137,66.829 -53.025,141.831 -79.467,225.393 z"
        fill="#d22128"
        id="path5" /><path
        d="m 283.454,726.427 c -17.023,53.785 -33.817,111.245 -50.118,171.969 -5.783,21.53 -11.497,43.461 -17.131,65.874 126.53,41.78 243.043,0.096 246.993,-51.564 0.032,-0.409 -0.044,-0.714 -0.02,-1.107 3.011,-54.716 -78.983,-24.386 -77.042,-57.282 1.949,-33.138 143.148,-0.193 186.814,-71.241 3.348,-5.447 5.53,-10.284 7.222,-14.88 -133.311,5.31 -258.835,-29.961 -296.718,-41.769 z"
        fill="#7c297d"
        id="path6" /><path
        d="m 34.0104,505.638 c -1.8447,3.345 -3.5089,7.212 -4.9284,11.832 -24.52171,79.712 148.874,186.793 125.283,210.136 -21.265,21.033 -48.979,-27.033 -83.1531,-7.179 -3.7454,2.182 -7.547,4.933 -11.4488,8.936 -38.6492,39.603 -0.6055,153.695 109.0499,214.596 -25.588,85.931 -51.064,181.951 -76.0028,282.351 9.0468,-3.17 19.8738,-6.34 22.5688,-14.88 4.046,-16.63 29.053,-117.87 69.655,-255.206 0,0 7.411,-28.132 20.977,-74.481 12.543,-42.86 30.368,-101.314 52.532,-167.734 C 149.95,643.322 72.1864,554.691 34.0104,505.638 Z"
        fill="#7c297d"
        id="path7" /></g></g><style
        id="style1">
  </style></svg>
