<?xml version="1.0" encoding="UTF-8"?>
<svg width="312px" height="62px" viewBox="0 0 312 62" version="1.1" xmlns="http://www.w3.org/2000/svg" xmlns:xlink="http://www.w3.org/1999/xlink">
    <title>web-age-logo-white 2</title>
    <g id="Page-1" stroke="none" stroke-width="1" fill="none" fill-rule="evenodd">
        <g id="web-age-logo-white" fill="#1D74BC" fill-rule="nonzero">
            <path d="M161.262,51.74675 L164.5945,51.74675 C165.25325,51.74675 165.788,51.93275 166.191,52.30475 C166.594,52.67675 166.7955,53.20375 166.7955,53.878 C166.7955,54.45925 166.61725,54.963 166.253,55.397 C165.88875,55.831 165.3385,56.04025 164.5945,56.04025 L162.2695,56.04025 L162.2695,59.18675 L161.262,59.18675 L161.262,51.74675 Z M165.168,52.76975 C164.94325,52.669 164.641,52.61475 164.26125,52.61475 L162.2695,52.61475 L162.2695,55.1955 L164.26125,55.1955 C164.71075,55.1955 165.075,55.1025 165.354,54.90875 C165.633,54.715 165.7725,54.374 165.7725,53.8935 C165.7725,53.34325 165.571,52.97125 165.168,52.7775 L165.168,52.76975 Z" id="path6"></path>
            <path d="M171.895,54.30425 C172.3755,54.76925 172.61575,55.45125 172.61575,56.358 C172.61575,57.26475 172.4065,57.9545 171.98025,58.52025 C171.56175,59.09375 170.903,59.37275 170.01175,59.37275 C169.26775,59.37275 168.67875,59.117 168.24475,58.61325 C167.81075,58.1095 167.59375,57.43525 167.59375,56.58275 C167.59375,55.66825 167.82625,54.9475 168.2835,54.405 C168.74075,53.8625 169.36075,53.599 170.13575,53.599 C170.83325,53.599 171.4145,53.8315 171.895,54.2965 L171.895,54.30425 Z M171.32925,57.908 C171.554,57.45075 171.6625,56.93925 171.6625,56.38125 C171.6625,55.8775 171.585,55.46675 171.42225,55.149 C171.1665,54.653 170.7325,54.39725 170.1125,54.39725 C169.56225,54.39725 169.15925,54.6065 168.91125,55.03275 C168.66325,55.459 168.53925,55.9705 168.53925,56.56725 C168.53925,57.164 168.66325,57.62125 168.91125,58.00875 C169.15925,58.39625 169.56225,58.58225 170.10475,58.58225 C170.7015,58.58225 171.11225,58.3575 171.337,57.90025 L171.32925,57.908 Z" id="path8"></path>
            <polygon id="path10" points="174.158 53.76175 175.20425 58.03975 176.266 53.76175 177.289 53.76175 178.35075 58.00875 179.459 53.76175 180.3735 53.76175 178.80025 59.18675 177.85475 59.18675 176.75425 54.98625 175.68475 59.18675 174.73925 59.18675 173.17375 53.76175 174.1735 53.76175"></polygon>
            <path d="M184.574,53.909 C184.9305,54.08725 185.2095,54.31975 185.3955,54.6065 C185.57375,54.87775 185.69775,55.1955 185.75975,55.5675 C185.814,55.8155 185.83725,56.2185 185.83725,56.761 L181.8925,56.761 C181.908,57.31125 182.03975,57.753 182.28,58.08625 C182.52025,58.4195 182.89225,58.59 183.40375,58.59 C183.8765,58.59 184.25625,58.435 184.53525,58.11725 C184.69025,57.93125 184.8065,57.722 184.8685,57.48175 L185.7675,57.48175 C185.74425,57.68325 185.66675,57.90025 185.535,58.14825 C185.40325,58.39625 185.256,58.59 185.0855,58.745 C184.8065,59.01625 184.47325,59.1945 184.0625,59.29525 C183.8455,59.3495 183.5975,59.37275 183.32625,59.37275 C182.652,59.37275 182.08625,59.12475 181.62125,58.6365 C181.15625,58.14825 180.92375,57.4585 180.92375,56.575 C180.92375,55.6915 181.15625,54.994 181.629,54.4515 C182.10175,53.909 182.714,53.63775 183.4735,53.63775 C183.85325,53.63775 184.22525,53.73075 184.5895,53.909 L184.574,53.909 Z M184.8995,56.04025 C184.86075,55.645 184.7755,55.32725 184.64375,55.09475 C184.39575,54.653 183.985,54.436 183.40375,54.436 C182.98525,54.436 182.64425,54.58325 182.3575,54.8855 C182.07075,55.18775 181.9235,55.57525 181.908,56.04025 L184.8995,56.04025 Z" id="path12"></path>
            <path d="M187.023,53.76175 L187.891,53.76175 L187.891,54.6995 C187.96075,54.5135 188.139,54.2965 188.41025,54.033 C188.68925,53.7695 189.007,53.63775 189.37125,53.63775 C189.38675,53.63775 189.41775,53.63775 189.4565,53.63775 C189.49525,53.63775 189.565,53.6455 189.66575,53.661 L189.66575,54.622 C189.6115,54.61425 189.565,54.6065 189.5185,54.59875 C189.472,54.591 189.4255,54.59875 189.37125,54.59875 C188.914,54.59875 188.5575,54.746 188.3095,55.0405 C188.0615,55.335 187.9375,55.676 187.9375,56.0635 L187.9375,59.18675 L187.023,59.18675 L187.023,53.76175 Z" id="path14"></path>
            <path d="M193.7965,53.909 C194.153,54.08725 194.432,54.31975 194.618,54.6065 C194.79625,54.87775 194.92025,55.1955 194.98225,55.5675 C195.0365,55.8155 195.05975,56.2185 195.05975,56.761 L191.115,56.761 C191.1305,57.31125 191.26225,57.753 191.5025,58.08625 C191.74275,58.4195 192.11475,58.59 192.62625,58.59 C193.099,58.59 193.47875,58.435 193.75775,58.11725 C193.91275,57.93125 194.029,57.722 194.091,57.48175 L194.99,57.48175 C194.96675,57.68325 194.88925,57.90025 194.7575,58.14825 C194.62575,58.39625 194.4785,58.59 194.308,58.745 C194.029,59.01625 193.69575,59.1945 193.285,59.29525 C193.068,59.3495 192.82,59.37275 192.54875,59.37275 C191.8745,59.37275 191.30875,59.12475 190.84375,58.6365 C190.37875,58.14825 190.14625,57.4585 190.14625,56.575 C190.14625,55.6915 190.37875,54.994 190.8515,54.4515 C191.32425,53.909 191.9365,53.63775 192.696,53.63775 C193.07575,53.63775 193.44775,53.73075 193.812,53.909 L193.7965,53.909 Z M194.122,56.04025 C194.08325,55.645 193.998,55.32725 193.86625,55.09475 C193.61825,54.653 193.2075,54.436 192.62625,54.436 C192.20775,54.436 191.86675,54.58325 191.58,54.8855 C191.29325,55.18775 191.146,55.57525 191.1305,56.04025 L194.122,56.04025 Z" id="path16"></path>
            <path d="M199.19825,53.9245 C199.361,54.02525 199.547,54.2035 199.7485,54.45925 L199.7485,51.71575 L200.62425,51.71575 L200.62425,59.179 L199.80275,59.179 L199.80275,58.42725 C199.5935,58.7605 199.33775,59.00075 199.051,59.148 C198.76425,59.29525 198.431,59.37275 198.059,59.37275 C197.4545,59.37275 196.93525,59.117 196.4935,58.61325 C196.05175,58.1095 195.83475,57.4275 195.83475,56.58275 C195.83475,55.79225 196.03625,55.11025 196.43925,54.529 C196.84225,53.94775 197.41575,53.661 198.15975,53.661 C198.5705,53.661 198.91925,53.74625 199.19825,53.9245 L199.19825,53.9245 Z M197.16,57.99325 C197.408,58.3885 197.7955,58.58225 198.338,58.58225 C198.7565,58.58225 199.10525,58.404 199.3765,58.03975 C199.64775,57.6755 199.7795,57.15625 199.7795,56.47425 C199.7795,55.79225 199.64,55.28075 199.361,54.95525 C199.082,54.62975 198.741,54.45925 198.33025,54.45925 C197.873,54.45925 197.501,54.6375 197.222,54.98625 C196.943,55.335 196.79575,55.85425 196.79575,56.53625 C196.79575,57.1175 196.91975,57.60575 197.16,57.99325 L197.16,57.99325 Z" id="path18"></path>
            <path d="M204.79375,51.71575 L205.67725,51.71575 L205.67725,54.41275 C205.87875,54.14925 206.119,53.9555 206.398,53.816 C206.677,53.6765 206.97925,53.6145 207.30475,53.6145 C207.979,53.6145 208.52925,53.847 208.9555,54.312 C209.374,54.777 209.591,55.459 209.591,56.36575 C209.591,57.226 209.38175,57.939 208.96325,58.50475 C208.54475,59.0705 207.97125,59.35725 207.22725,59.35725 C206.8165,59.35725 206.46775,59.2565 206.181,59.055 C206.0105,58.93875 205.83225,58.745 205.6385,58.48925 L205.6385,59.18675 L204.8015,59.18675 L204.8015,51.7235 L204.79375,51.71575 Z M208.28125,57.96225 C208.52925,57.567 208.65325,57.0555 208.65325,56.41225 C208.65325,55.83875 208.52925,55.366 208.28125,54.994 C208.03325,54.622 207.67675,54.42825 207.19625,54.42825 C206.77775,54.42825 206.4135,54.58325 206.1035,54.8855 C205.7935,55.18775 205.63075,55.69925 205.63075,56.4045 C205.63075,56.916 205.69275,57.32675 205.8245,57.6445 C206.06475,58.24125 206.51425,58.5435 207.173,58.5435 C207.669,58.5435 208.041,58.34975 208.28125,57.9545 L208.28125,57.96225 Z" id="path20"></path>
            <path d="M214.03175,53.76175 L215.03925,53.76175 C214.9075,54.1105 214.6285,54.901 214.18675,56.141 C213.8535,57.071 213.5745,57.8305 213.3575,58.4195 C212.8305,59.799 212.4585,60.64375 212.2415,60.95375 C212.0245,61.26375 211.6525,61.411 211.1255,61.411 C210.99375,61.411 210.90075,61.411 210.831,61.3955 C210.76125,61.38775 210.676,61.3645 210.57525,61.34125 L210.57525,60.512 C210.738,60.5585 210.8465,60.58175 210.91625,60.5895 C210.986,60.59725 211.048,60.605 211.10225,60.605 C211.27275,60.605 211.39675,60.574 211.47425,60.51975 C211.55175,60.4655 211.6215,60.39575 211.67575,60.31825 C211.69125,60.295 211.75325,60.1555 211.854,59.9075 C211.95475,59.6595 212.03225,59.4735 212.07875,59.3495 L210.0715,53.76175 L211.10225,53.76175 L212.55925,58.17925 L214.024,53.76175 L214.03175,53.76175 Z" id="path22"></path>
            <polygon id="path24" points="272.93175 51.74675 273.93925 51.74675 273.93925 58.30325 277.67475 58.30325 277.67475 59.18675 272.93175 59.18675"></polygon>
            <path d="M281.9295,53.909 C282.286,54.08725 282.565,54.31975 282.751,54.6065 C282.92925,54.87775 283.05325,55.1955 283.11525,55.5675 C283.1695,55.8155 283.19275,56.2185 283.19275,56.761 L279.248,56.761 C279.2635,57.31125 279.39525,57.753 279.6355,58.08625 C279.87575,58.4195 280.24775,58.59 280.75925,58.59 C281.232,58.59 281.61175,58.435 281.89075,58.11725 C282.04575,57.93125 282.162,57.722 282.224,57.48175 L283.123,57.48175 C283.09975,57.68325 283.02225,57.90025 282.8905,58.14825 C282.75875,58.39625 282.6115,58.59 282.441,58.745 C282.16975,59.01625 281.82875,59.1945 281.418,59.29525 C281.201,59.3495 280.953,59.37275 280.68175,59.37275 C280.0075,59.37275 279.44175,59.12475 278.97675,58.6365 C278.51175,58.14825 278.27925,57.4585 278.27925,56.575 C278.27925,55.6915 278.51175,54.994 278.9845,54.4515 C279.45725,53.909 280.0695,53.63775 280.829,53.63775 C281.20875,53.63775 281.58075,53.73075 281.945,53.909 L281.9295,53.909 Z M282.255,56.04025 C282.21625,55.645 282.131,55.32725 281.99925,55.09475 C281.75125,54.653 281.3405,54.436 280.75925,54.436 C280.34075,54.436 279.992,54.58325 279.713,54.8855 C279.434,55.18775 279.28675,55.57525 279.2635,56.04025 L282.255,56.04025 Z" id="path26"></path>
            <path d="M287.25375,55.90075 C287.463,55.8775 287.6025,55.7845 287.67225,55.63725 C287.711,55.55975 287.73425,55.43575 287.73425,55.2885 C287.73425,54.9785 287.62575,54.75375 287.401,54.6065 C287.17625,54.45925 286.86625,54.39725 286.4555,54.39725 C285.98275,54.39725 285.64175,54.529 285.448,54.78475 C285.3395,54.92425 285.262,55.14125 285.231,55.42025 L284.3785,55.42025 C284.394,54.746 284.611,54.281 285.0295,54.0175 C285.448,53.754 285.9285,53.62225 286.47875,53.62225 C287.11425,53.62225 287.6335,53.74625 288.02875,53.9865 C288.424,54.22675 288.61775,54.6065 288.61775,55.118 L288.61775,58.24125 C288.61775,58.33425 288.63325,58.41175 288.67975,58.466 C288.7185,58.52025 288.80375,58.55125 288.92775,58.55125 C288.9665,58.55125 289.013,58.55125 289.06725,58.55125 C289.1215,58.55125 289.168,58.53575 289.23,58.528 L289.23,59.20225 C289.0905,59.241 288.982,59.26425 288.9045,59.27975 C288.827,59.2875 288.72625,59.29525 288.60225,59.29525 C288.2845,59.29525 288.05975,59.18675 287.92025,58.962 C287.84275,58.84575 287.79625,58.67525 287.76525,58.45825 C287.57925,58.6985 287.31575,58.9155 286.967,59.09375 C286.61825,59.272 286.2385,59.365 285.82,59.365 C285.31625,59.365 284.9055,59.21 284.58775,58.90775 C284.27,58.6055 284.10725,58.218 284.10725,57.76075 C284.10725,57.257 284.26225,56.8695 284.58,56.5905 C284.89775,56.3115 285.3085,56.141 285.81225,56.079 L287.26925,55.893 L287.25375,55.90075 Z M285.33175,58.36525 C285.5255,58.52025 285.75025,58.59 286.01375,58.59 C286.3315,58.59 286.6415,58.5125 286.94375,58.36525 C287.4475,58.11725 287.70325,57.71425 287.70325,57.15625 L287.70325,56.42 C287.59475,56.48975 287.4475,56.55175 287.277,56.59825 C287.09875,56.64475 286.92825,56.67575 286.75775,56.699 L286.2075,56.76875 C285.87425,56.81525 285.62625,56.885 285.4635,56.978 C285.1845,57.133 285.03725,57.38875 285.03725,57.7375 C285.03725,58.001 285.13025,58.21025 285.324,58.3575 L285.33175,58.36525 Z" id="path28"></path>
            <path d="M290.1445,53.76175 L291.0125,53.76175 L291.0125,54.6995 C291.08225,54.5135 291.2605,54.2965 291.53175,54.033 C291.81075,53.7695 292.1285,53.63775 292.485,53.63775 C292.5005,53.63775 292.5315,53.63775 292.57025,53.63775 C292.609,53.63775 292.67875,53.6455 292.7795,53.661 L292.7795,54.622 C292.72525,54.61425 292.67875,54.6065 292.63225,54.59875 C292.58575,54.591 292.53925,54.59875 292.485,54.59875 C292.02775,54.59875 291.67125,54.746 291.42325,55.0405 C291.17525,55.335 291.05125,55.676 291.05125,56.0635 L291.05125,59.18675 L290.13675,59.18675 L290.13675,53.76175 L290.1445,53.76175 Z" id="path30"></path>
            <path d="M293.57,53.76175 L294.438,53.76175 L294.438,54.529 C294.69375,54.21125 294.965,53.9865 295.25175,53.847 C295.5385,53.7075 295.85625,53.63775 296.21275,53.63775 C296.98,53.63775 297.49925,53.909 297.7705,54.44375 C297.91775,54.73825 297.99525,55.15675 297.99525,55.707 L297.99525,59.18675 L297.06525,59.18675 L297.06525,55.769 C297.06525,55.43575 297.01875,55.17225 296.918,54.97075 C296.75525,54.62975 296.46075,54.467 296.0345,54.467 C295.8175,54.467 295.63925,54.49025 295.49975,54.529 C295.25175,54.6065 295.027,54.75375 294.841,54.9785 C294.686,55.15675 294.593,55.34275 294.5465,55.5365 C294.5,55.73025 294.47675,56.0015 294.47675,56.358 L294.47675,59.20225 L293.56225,59.20225 L293.56225,53.77725 L293.57,53.76175 Z" id="path32"></path>
            <path d="M299.34375,51.74675 L300.27375,51.74675 L300.27375,52.7775 L299.34375,52.7775 L299.34375,51.74675 Z M299.34375,53.785 L300.27375,53.785 L300.27375,59.18675 L299.34375,59.18675 L299.34375,53.785 Z" id="path34"></path>
            <path d="M301.6455,53.76175 L302.5135,53.76175 L302.5135,54.529 C302.76925,54.21125 303.0405,53.9865 303.32725,53.847 C303.614,53.7075 303.93175,53.63775 304.28825,53.63775 C305.0555,53.63775 305.57475,53.909 305.846,54.44375 C305.99325,54.73825 306.07075,55.15675 306.07075,55.707 L306.07075,59.18675 L305.14075,59.18675 L305.14075,55.769 C305.14075,55.43575 305.09425,55.17225 304.9935,54.97075 C304.83075,54.62975 304.53625,54.467 304.11,54.467 C303.893,54.467 303.71475,54.49025 303.57525,54.529 C303.32725,54.6065 303.1025,54.75375 302.9165,54.9785 C302.7615,55.15675 302.6685,55.34275 302.622,55.5365 C302.5755,55.73025 302.55225,56.0015 302.55225,56.358 L302.55225,59.20225 L301.63775,59.20225 L301.63775,53.77725 L301.6455,53.76175 Z" id="path36"></path>
            <path d="M310.434,53.97875 C310.6045,54.095 310.78275,54.27325 310.961,54.498 L310.961,53.816 L311.798,53.816 L311.798,58.75275 C311.798,59.4425 311.69725,59.985 311.49575,60.38025 C311.116,61.1165 310.41075,61.48075 309.3645,61.48075 C308.78325,61.48075 308.295,61.349 307.892,61.0855 C307.49675,60.822 307.272,60.41125 307.2255,59.861 L308.1555,59.861 C308.202,60.10125 308.28725,60.295 308.419,60.42675 C308.6205,60.62825 308.946,60.729 309.38775,60.729 C310.08525,60.729 310.53475,60.481 310.75175,59.99275 C310.87575,59.69825 310.93775,59.18675 310.93,58.435 C310.75175,58.714 310.527,58.9155 310.27125,59.055 C310.0155,59.1945 309.6745,59.2565 309.256,59.2565 C308.67475,59.2565 308.1555,59.04725 307.7215,58.62875 C307.2875,58.21025 307.06275,57.5205 307.06275,56.5595 C307.06275,55.65275 307.2875,54.93975 307.72925,54.436 C308.171,53.9245 308.70575,53.66875 309.3335,53.66875 C309.75975,53.66875 310.124,53.77725 310.44175,53.9865 L310.434,53.97875 Z M310.5425,54.95525 C310.2635,54.62975 309.91475,54.467 309.4885,54.467 C308.853,54.467 308.41125,54.76925 308.17875,55.366 C308.05475,55.68375 307.99275,56.11 307.99275,56.62925 C307.99275,57.2415 308.11675,57.7065 308.36475,58.02425 C308.61275,58.342 308.946,58.50475 309.35675,58.50475 C310.00775,58.50475 310.465,58.21025 310.7285,57.62125 C310.87575,57.288 310.95325,56.9005 310.95325,56.451 C310.95325,55.77675 310.81375,55.28075 310.5425,54.95525 L310.5425,54.95525 Z" id="path38"></path>
            <path d="M243.04,57.567 L240.73825,54.901 L243.06325,52.2195 C243.2725,51.97925 243.41975,51.77775 243.4895,51.5995 C243.55925,51.42125 243.55925,51.2585 243.4895,51.09575 C243.41975,50.933 243.26475,50.747 243.03225,50.53 C242.72225,50.24325 242.45875,50.1115 242.2495,50.13475 C242.04025,50.158 241.77675,50.344 241.45125,50.67725 L239.2735,53.196 L237.09575,50.67725 C236.89425,50.4525 236.716,50.2975 236.561,50.22 C236.406,50.13475 236.24325,50.127 236.0805,50.1735 C235.91775,50.22 235.73175,50.344 235.51475,50.53 C235.29,50.73925 235.14275,50.933 235.073,51.09575 C235.00325,51.2585 235.00325,51.429 235.073,51.5995 C235.14275,51.77775 235.28225,51.97925 235.49925,52.2195 L237.8165,54.89325 L235.49925,57.57475 C235.29775,57.7995 235.15825,58.001 235.0885,58.17925 C235.011,58.3575 235.011,58.52025 235.08075,58.67525 C235.1505,58.83025 235.29,59.01625 235.507,59.23325 C235.73175,59.4115 235.9255,59.52775 236.0805,59.58975 C236.15025,59.62075 236.22,59.6285 236.2975,59.6285 C236.38275,59.6285 236.47575,59.60525 236.561,59.55875 C236.72375,59.4735 236.90975,59.32625 237.12675,59.1015 L239.29675,56.59825 L241.46675,59.1015 C241.6915,59.32625 241.88525,59.48125 242.04025,59.55875 C242.19525,59.63625 242.35025,59.65175 242.513,59.5975 C242.668,59.54325 242.854,59.41925 243.06325,59.23325 C243.3035,59.024 243.45075,58.838 243.51275,58.67525 C243.57475,58.52025 243.567,58.34975 243.49725,58.17925 C243.41975,58.001 243.28025,57.7995 243.06325,57.57475 L243.06325,57.57475 L243.04,57.567 Z" id="path40"></path>
            <path d="M251.44875,56.52075 C251.29375,56.41225 251.15425,56.358 251.01475,56.358 C250.87525,56.358 250.75125,56.39675 250.635,56.47425 C250.51875,56.55175 250.02275,56.92375 249.85225,57.01675 C249.6895,57.10975 249.5035,57.18725 249.302,57.2415 C249.1005,57.29575 248.87575,57.32675 248.6355,57.32675 C248.17825,57.32675 247.7675,57.226 247.40325,57.01675 C247.039,56.8075 246.7445,56.513 246.53525,56.141 C246.326,55.769 246.22525,55.34275 246.22525,54.8545 C246.22525,54.36625 246.326,53.94775 246.53525,53.5835 C246.7445,53.21925 247.039,52.92475 247.411,52.7155 C247.783,52.50625 248.20925,52.4055 248.67425,52.4055 C248.89125,52.4055 249.085,52.4365 249.271,52.4985 C249.457,52.5605 249.6275,52.638 249.79025,52.73875 C249.953,52.8395 250.11575,52.9325 250.28625,53.041 C250.449,53.1495 250.61175,53.25025 250.78225,53.3355 C251.0845,53.42075 251.38675,53.289 251.69675,52.9325 C251.813,52.81625 251.906,52.70775 251.9835,52.59925 C252.061,52.49075 252.11525,52.3745 252.154,52.2505 C252.19275,52.049 252.154,51.8785 252.03775,51.739 C251.9215,51.5995 251.61925,51.181 251.162,50.89425 C250.70475,50.61525 250.3405,50.437 249.94525,50.313 C249.55,50.189 249.12375,50.127 248.67425,50.127 C248.0775,50.127 247.49625,50.2355 246.92275,50.4525 C246.34925,50.6695 245.83775,50.9795 245.37275,51.3825 C244.90775,51.7855 244.5435,52.2815 244.28,52.86275 C244.0165,53.444 243.877,54.1105 243.877,54.86225 C243.877,55.614 244.00875,56.2805 244.28,56.8695 C244.5435,57.4585 244.9155,57.9545 245.3805,58.36525 C245.8455,58.76825 246.3725,59.07825 246.946,59.29525 C247.5195,59.51225 248.1085,59.62075 248.70525,59.62075 C249.13925,59.62075 249.54225,59.5665 249.92975,59.45025 C250.31725,59.334 250.65825,59.1945 250.945,59.03175 C251.2395,58.869 251.9835,58.2645 252.08425,58.10175 C252.185,57.939 252.22375,57.7685 252.20825,57.59025 C252.19275,57.412 252.09975,57.226 251.92925,57.04 C251.751,56.81525 251.58825,56.64475 251.43325,56.53625 L251.43325,56.53625 L251.44875,56.52075 Z" id="path42"></path>
            <path d="M266.74725,57.74525 C266.662,57.598 266.56125,57.49725 266.4295,57.4585 C266.29775,57.41975 266.1505,57.40425 265.98775,57.40425 C265.80175,57.40425 265.639,57.38875 265.50725,57.35 C265.3755,57.31125 265.267,57.24925 265.1895,57.15625 C265.10425,57.06325 265.05,56.93925 265.019,56.7765 C264.988,56.6215 264.9725,56.42 264.9725,56.17975 L264.9725,46.6705 C264.9725,46.4535 264.94925,46.25975 264.90275,46.08925 C264.85625,45.911 264.7555,45.7715 264.6005,45.67075 C264.4455,45.57 264.18975,45.5235 263.83325,45.5235 C263.47675,45.5235 263.221,45.57775 263.05825,45.68625 C262.8955,45.79475 262.79475,45.93425 262.756,46.10475 C262.71725,46.27525 262.70175,46.469 262.70175,46.7015 L262.70175,56.28825 C262.70175,56.81525 262.7405,57.2725 262.818,57.6445 C262.8955,58.02425 263.0195,58.342 263.18225,58.59775 C263.35275,58.8535 263.56975,59.06275 263.8255,59.21 C264.08125,59.35725 264.39125,59.46575 264.74775,59.52775 C265.10425,59.58975 265.515,59.62075 265.98,59.62075 C266.12725,59.62075 266.2745,59.60525 266.414,59.5665 C266.5535,59.52775 266.662,59.427 266.74725,59.26425 C266.8325,59.1015 266.87125,58.84575 266.87125,58.48925 C266.87125,58.13275 266.8325,57.908 266.74725,57.753 L266.74725,57.753 L266.74725,57.74525 Z" id="path44"></path>
            <path d="M259.2995,53.73075 C259.2685,53.62225 259.222,53.5215 259.1755,53.42075 C259.01275,53.0875 258.788,52.824 258.4935,52.63025 C258.20675,52.44425 257.85025,52.35125 257.424,52.35125 C256.92025,52.35125 256.494,52.45975 256.153,52.669 C255.80425,52.886 255.5485,53.17275 255.37025,53.54475 C255.33925,53.60675 255.316,53.66875 255.29275,53.73075 L259.2995,53.73075 Z M257.61,59.5975 C256.70325,59.58975 255.88175,59.38825 255.16875,58.993 C254.4325,58.59 253.85125,58.02425 253.43275,57.31125 C253.022,56.59825 252.805,55.77675 252.805,54.86225 C252.805,53.94775 253.0065,53.1185 253.394,52.41325 C253.7815,51.70025 254.3395,51.1345 255.037,50.72375 C255.7345,50.32075 256.53275,50.11925 257.424,50.11925 C258.31525,50.11925 259.0825,50.32075 259.7335,50.716 C260.37675,51.119 260.8805,51.66925 261.2215,52.36675 C261.55475,53.04875 261.72525,53.83925 261.72525,54.72275 C261.72525,55.03275 261.609,55.31175 261.38425,55.52875 C261.16725,55.738 260.88825,55.8465 260.56275,55.8465 L255.26175,55.8465 C255.3005,55.955 255.35475,56.05575 255.409,56.14875 C255.626,56.52075 255.92825,56.823 256.308,57.03225 C256.6955,57.24925 257.145,57.35775 257.64875,57.35775 C258.1525,57.35775 258.7415,57.2105 259.01275,57.12525 C259.1755,57.07875 259.315,57.01675 259.44675,56.9625 L259.7955,56.79975 C259.904,56.7455 260.02025,56.7145 260.14425,56.699 C260.17525,56.699 260.20625,56.699 260.2295,56.699 C260.3845,56.699 260.524,56.73775 260.6635,56.81525 C260.82625,56.9005 260.95025,57.04775 261.05875,57.26475 C261.1285,57.381 261.18275,57.49725 261.2215,57.62125 C261.26025,57.74525 261.27575,57.8615 261.27575,57.97 C261.27575,58.2645 261.10525,58.5435 260.77975,58.7915 C260.493,59.0085 260.0745,59.1945 259.50875,59.3495 C258.91975,59.51225 258.3385,59.582 257.66425,59.58975 L257.61,59.58975 L257.61,59.5975 Z" id="path46"></path>
            <path d="M227.17575,54.3895 C225.7885,54.3895 224.66475,53.26575 224.66475,51.8785 C224.66475,50.49125 225.7885,49.3675 227.17575,49.3675 C228.563,49.3675 229.68675,50.49125 229.68675,51.8785 C229.68675,53.26575 228.563,54.3895 227.17575,54.3895 Z M234.52275,58.70625 L227.9895,45.4305 C227.76475,44.92675 226.641,44.919 226.4085,45.42275 L219.62725,58.6985 C219.42575,59.12475 219.73575,59.613 220.2085,59.613 C220.627,59.613 221.0455,59.62075 221.464,59.63625 C221.76625,59.644 222.09175,59.60525 222.30875,59.396 C222.43275,59.272 222.51025,59.117 222.57225,58.95425 C222.89,58.1405 223.09925,57.4275 223.696,56.75325 C224.4555,55.893 225.51725,55.273 226.672,55.14125 C226.83475,55.12575 227.00525,55.11025 227.17575,55.11025 C228.26075,55.11025 229.31475,55.521 230.144,56.22625 C230.64,56.6525 231.01975,57.18725 231.322,57.7685 C231.54675,58.19475 231.71725,58.652 231.90325,59.09375 C231.9575,59.21775 232.01175,59.34175 232.10475,59.43475 C232.43025,59.7525 233.45325,59.63625 233.9415,59.62075 C234.4065,59.60525 234.72425,59.14025 234.5305,58.714 L234.5305,58.714 L234.52275,58.70625 Z" id="path48"></path>
            <polygon id="path50" points="82.99475 35.712 77.95725 35.712 76.136 25.44325 76.0895 25.44325 74.31475 35.712 69.254 35.712 64.6815 18.88675 69.7655 18.88675 71.8115 29.295 71.858 29.295 73.88075 18.88675 78.461 18.88675 80.43725 29.42675 80.48375 29.42675 82.57625 18.88675 87.6835 18.88675 82.97925 35.712"></polygon>
            <polygon id="path52" points="88.96225 18.8945 102.44725 18.8945 102.44725 23.19575 93.9765 23.19575 93.9765 25.30375 101.6645 25.30375 101.6645 29.3105 93.9765 29.3105 93.9765 31.4185 102.703 31.4185 102.703 35.71975 88.96225 35.71975"></polygon>
            <path d="M104.64825,18.8945 L113.7545,18.8945 C114.84725,18.8945 115.74625,19.02625 116.467,19.2975 C117.149,19.561 117.68375,19.902 118.07125,20.336 C118.45875,20.7545 118.73,21.21175 118.89275,21.70775 C119.01675,22.18825 119.071,22.661 119.071,23.1105 C119.071,23.9475 118.89275,24.614 118.5285,25.11 C118.14875,25.62925 117.645,26.06325 117.00175,26.412 C117.79225,26.66775 118.4665,27.11725 119.0245,27.7605 C119.60575,28.41925 119.908,29.3725 119.9235,30.6125 C119.8925,32.29425 119.29575,33.5575 118.1255,34.40225 C116.9785,35.28575 115.63775,35.7275 114.0955,35.7275 L104.656,35.7275 L104.656,18.90225 L104.64825,18.8945 Z M109.6625,25.451 L112.499,25.451 C113.06475,25.451 113.5065,25.35025 113.832,25.14875 C114.1575,24.9395 114.32025,24.57525 114.32025,24.04825 C114.32025,23.622 114.1575,23.312 113.832,23.126 C113.5065,22.971 113.06475,22.8935 112.499,22.8935 L109.6625,22.8935 L109.6625,25.451 Z M109.6625,31.713 L112.80125,31.713 C113.39025,31.713 113.8785,31.6045 114.28925,31.37975 C114.67675,31.16275 114.886,30.74425 114.90925,30.1165 C114.90925,29.109 114.2815,28.5975 113.03375,28.582 L109.67025,28.582 L109.67025,31.713 L109.6625,31.713 Z" id="path54"></path>
            <path d="M133.63325,18.8945 L138.539,18.8945 L144.48325,35.71975 L139.27525,35.71975 L138.59325,33.31725 L133.4085,33.31725 L132.67225,35.71975 L127.63475,35.71975 L133.63325,18.8945 Z M137.578,29.72125 L136.121,24.521 L136.0745,24.521 L134.50125,29.72125 L137.578,29.72125 Z" id="path56"></path>
            <path d="M157.48775,34.007 C157.2165,34.348 156.9065,34.65025 156.57325,34.91375 C156.2245,35.185 155.84475,35.40975 155.42625,35.6035 C155.0465,35.7585 154.63575,35.8825 154.20175,35.98325 C153.75225,36.07625 153.30275,36.12275 152.85325,36.12275 C150.4275,36.09175 148.5365,35.247 147.16475,33.58075 C145.78525,31.961 145.08775,29.92275 145.07225,27.47375 C145.11875,24.2885 145.9945,21.98675 147.715,20.5685 C149.3735,19.1735 151.1715,18.48375 153.109,18.49925 C157.325,18.56125 159.8205,20.65375 160.611,24.7845 L155.7905,24.7845 C155.68975,24.15675 155.42625,23.64525 155,23.25 C154.5505,22.88575 154.0235,22.69975 153.419,22.68425 C152.58975,22.69975 151.93875,22.88575 151.4815,23.25 C151.0165,23.64525 150.6755,24.12575 150.474,24.6915 C150.2725,25.234 150.15625,25.7765 150.12525,26.319 C150.09425,26.85375 150.07875,27.28 150.07875,27.59 C150.07875,27.993 150.133,28.43475 150.24925,28.91525 C150.35,29.41125 150.536,29.884 150.7995,30.3335 C151.07075,30.79075 151.44275,31.16275 151.9155,31.465 C152.40375,31.78275 153.02375,31.93775 153.76775,31.93775 C154.38,31.93775 154.93025,31.78275 155.42625,31.465 C155.9145,31.14725 156.23225,30.69 156.364,30.07775 L154.15525,30.07775 L154.15525,26.48175 L160.82025,26.48175 L160.82025,35.71975 L157.64275,35.71975 L157.48775,34.01475 L157.48775,34.007 Z" id="path58"></path>
            <polygon id="path60" points="163.2925 18.8945 176.7775 18.8945 176.7775 23.19575 168.30675 23.19575 168.30675 25.30375 175.99475 25.30375 175.99475 29.3105 168.30675 29.3105 168.30675 31.4185 177.03325 31.4185 177.03325 35.71975 163.2925 35.71975"></polygon>
            <path d="M187.85225,30.65125 C187.91425,31.403 188.08475,32.04625 188.356,32.57325 C188.62725,33.10025 188.98375,33.5265 189.41775,33.85975 C189.85175,34.193 190.34775,34.43325 190.9135,34.5805 C191.47925,34.72775 192.08375,34.80525 192.727,34.80525 C193.47875,34.80525 194.12975,34.71225 194.68,34.5185 C195.23025,34.3325 195.67975,34.07675 196.02075,33.75125 C196.3695,33.4335 196.62525,33.05375 196.788,32.63525 C196.95075,32.21675 197.036,31.7595 197.036,31.2945 C197.036,30.63575 196.88875,30.101 196.5865,29.69025 C196.28425,29.2795 195.89675,28.94625 195.41625,28.6905 C194.93575,28.43475 194.3855,28.2255 193.7655,28.06275 C193.1455,27.90775 192.51,27.75275 191.859,27.6055 C191.208,27.45825 190.5725,27.28 189.9525,27.0785 C189.3325,26.877 188.78225,26.598 188.30175,26.257 C187.82125,25.90825 187.43375,25.4665 187.1315,24.924 C186.82925,24.3815 186.682,23.69175 186.682,22.8625 C186.682,22.28125 186.806,21.7155 187.04625,21.16525 C187.2865,20.615 187.65075,20.12675 188.13125,19.7005 C188.61175,19.27425 189.2085,18.941 189.937,18.68525 C190.65775,18.43725 191.49475,18.3055 192.4325,18.3055 C193.37025,18.3055 194.2305,18.43725 194.9435,18.7085 C195.6565,18.97975 196.25325,19.344 196.726,19.80125 C197.19875,20.26625 197.5475,20.801 197.78775,21.41325 C198.02025,22.0255 198.14425,22.6765 198.14425,23.36625 L196.60975,23.36625 C196.60975,22.723 196.4935,22.165 196.26875,21.69225 C196.044,21.2195 195.734,20.83975 195.33875,20.5375 C194.9435,20.243 194.50175,20.01825 193.998,19.87875 C193.49425,19.73925 192.975,19.6695 192.44025,19.6695 C191.6265,19.6695 190.93675,19.78575 190.37875,20.0105 C189.82075,20.23525 189.379,20.52975 189.04575,20.894 C188.7125,21.25825 188.48775,21.6535 188.36375,22.09525 C188.23975,22.537 188.2165,22.97875 188.294,23.41275 C188.387,23.963 188.61175,24.40475 188.95275,24.73025 C189.3015,25.0635 189.72,25.33475 190.22375,25.544 C190.7275,25.75325 191.27775,25.9315 191.88225,26.06325 C192.48675,26.195 193.10675,26.34225 193.7345,26.4895 C194.36225,26.63675 194.9745,26.815 195.5635,27.0165 C196.1525,27.218 196.67175,27.497 197.129,27.838 C197.58625,28.18675 197.9505,28.6285 198.22175,29.171 C198.493,29.7135 198.6325,30.3955 198.6325,31.20925 C198.6325,32.7825 198.09,33.99925 197.005,34.8595 C195.92,35.71975 194.39325,36.15375 192.4325,36.15375 C191.549,36.15375 190.73525,36.0375 189.9835,35.81275 C189.23175,35.588 188.58075,35.23925 188.0305,34.77425 C187.48025,34.30925 187.054,33.73575 186.744,33.05375 C186.434,32.37175 186.28675,31.56575 186.28675,30.63575 L187.8445,30.63575 L187.85225,30.65125 Z" id="path62"></path>
            <path d="M200.34525,27.25675 C200.34525,26.01675 200.51575,24.85425 200.849,23.76925 C201.19,22.68425 201.686,21.73875 202.34475,20.93275 C203.0035,20.12675 203.825,19.4835 204.79375,19.01075 C205.77025,18.538 206.894,18.3055 208.165,18.3055 C209.436,18.3055 210.645,18.538 211.64475,19.003 C212.6445,19.468 213.47375,20.1035 214.14025,20.9095 C214.80675,21.7155 215.3105,22.66875 215.6515,23.7615 C215.9925,24.85425 216.15525,26.01675 216.15525,27.2645 C216.15525,28.51225 215.98475,29.64375 215.6515,30.721 C215.3105,31.79825 214.8145,32.74375 214.15575,33.54975 C213.497,34.35575 212.66775,34.999 211.6835,35.47175 C210.6915,35.9445 209.5445,36.177 208.2425,36.177 C206.9405,36.177 205.7935,35.9445 204.8015,35.47175 C203.8095,34.999 202.988,34.3635 202.32925,33.54975 C201.6705,32.74375 201.1745,31.79825 200.84125,30.721 C200.508,29.64375 200.34525,28.49675 200.34525,27.2645 L200.34525,27.25675 Z M208.26575,34.7975 C209.36625,34.7975 210.31175,34.58825 211.10225,34.16975 C211.89275,33.75125 212.5515,33.201 213.05525,32.51125 C213.56675,31.8215 213.9465,31.0155 214.18675,30.10875 C214.427,29.19425 214.551,28.24875 214.551,27.25675 C214.551,26.07875 214.40375,25.02475 214.117,24.087 C213.8225,23.14925 213.404,22.351 212.85375,21.69225 C212.3035,21.0335 211.637,20.52975 210.85425,20.181 C210.0715,19.83225 209.188,19.66175 208.2115,19.66175 C207.1265,19.66175 206.18875,19.871 205.39825,20.29725 C204.60775,20.7235 203.949,21.2815 203.44525,21.979 C202.93375,22.6765 202.554,23.4825 202.31375,24.397 C202.0735,25.3115 201.9495,26.257 201.9495,27.249 C201.9495,28.241 202.0735,29.20975 202.31375,30.12425 C202.554,31.03875 202.93375,31.837 203.44525,32.52675 C203.95675,33.2165 204.60775,33.76675 205.39825,34.1775 C206.18875,34.58825 207.14975,34.78975 208.258,34.78975 L208.26575,34.7975 Z" id="path64"></path>
            <polygon id="path66" points="218.7515 35.712 218.7515 18.7395 220.35575 18.7395 220.35575 34.34025 229.45425 34.34025 229.45425 35.70425 218.7515 35.70425"></polygon>
            <path d="M231.291,18.74725 L232.89525,18.74725 L232.89525,28.861 C232.89525,30.969 233.2905,32.48025 234.07325,33.41025 C234.856,34.34025 236.127,34.7975 237.87075,34.7975 C238.78525,34.7975 239.5525,34.6735 240.19575,34.43325 C240.83125,34.193 241.34275,33.821 241.738,33.325 C242.13325,32.829 242.41225,32.21675 242.58275,31.47275 C242.75325,30.7365 242.8385,29.86075 242.8385,28.85325 L242.8385,18.7395 L244.44275,18.7395 L244.44275,29.31825 C244.44275,31.53475 243.90025,33.22425 242.8075,34.3945 C241.71475,35.56475 240.07175,36.15375 237.87075,36.15375 C235.66975,36.15375 234.0035,35.557 232.9185,34.3635 C231.8335,33.17 231.291,31.48825 231.291,29.31825 L231.291,18.7395 L231.291,18.74725 Z" id="path68"></path>
            <polygon id="path70" points="246.1555 18.74725 258.509 18.74725 258.509 20.11125 253.13825 20.11125 253.13825 35.712 251.534 35.712 251.534 20.11125 246.16325 20.11125 246.16325 18.74725"></polygon>
            <polygon id="path72" points="260.772 35.712 260.772 18.7395 262.37625 18.7395 262.37625 35.712"></polygon>
            <path d="M265.50725,27.25675 C265.50725,26.01675 265.67775,24.85425 266.011,23.76925 C266.352,22.68425 266.848,21.73875 267.50675,20.93275 C268.1655,20.12675 268.987,19.4835 269.95575,19.01075 C270.93225,18.538 272.056,18.3055 273.327,18.3055 C274.598,18.3055 275.807,18.538 276.80675,19.003 C277.8065,19.468 278.63575,20.1035 279.30225,20.9095 C279.96875,21.7155 280.4725,22.66875 280.8135,23.7615 C281.1545,24.85425 281.31725,26.01675 281.31725,27.2645 C281.31725,28.51225 281.14675,29.64375 280.8135,30.721 C280.4725,31.79825 279.9765,32.74375 279.31775,33.54975 C278.659,34.35575 277.82975,34.999 276.8455,35.47175 C275.8535,35.9445 274.7065,36.177 273.4045,36.177 C272.1025,36.177 270.9555,35.9445 269.9635,35.47175 C268.9715,34.999 268.15,34.3635 267.49125,33.54975 C266.8325,32.74375 266.3365,31.79825 266.00325,30.721 C265.67,29.64375 265.50725,28.49675 265.50725,27.2645 L265.50725,27.25675 Z M273.42775,34.7975 C274.52825,34.7975 275.47375,34.58825 276.26425,34.16975 C277.05475,33.75125 277.70575,33.201 278.21725,32.51125 C278.72875,31.8215 279.1085,31.0155 279.34875,30.10875 C279.589,29.19425 279.713,28.24875 279.713,27.25675 C279.713,26.07875 279.56575,25.02475 279.279,24.087 C278.9845,23.14925 278.566,22.351 278.01575,21.69225 C277.4655,21.0335 276.799,20.52975 276.0085,20.181 C275.22575,19.83225 274.34225,19.66175 273.36575,19.66175 C272.28075,19.66175 271.343,19.871 270.5525,20.29725 C269.762,20.7235 269.10325,21.2815 268.5995,21.979 C268.088,22.6765 267.70825,23.4825 267.468,24.397 C267.22775,25.3115 267.10375,26.257 267.10375,27.249 C267.10375,28.241 267.22775,29.20975 267.468,30.12425 C267.70825,31.03875 268.088,31.837 268.5995,32.52675 C269.111,33.2165 269.762,33.76675 270.5525,34.1775 C271.343,34.58825 272.304,34.78975 273.42,34.78975 L273.42775,34.7975 Z" id="path74"></path>
            <polygon id="path76" points="285.51775 20.91725 285.47125 20.91725 285.47125 35.71975 283.867 35.71975 283.867 18.74725 285.6805 18.74725 295.48425 33.573 295.53075 33.573 295.53075 18.74725 297.135 18.74725 297.135 35.71975 295.275 35.71975"></polygon>
            <path d="M301.00225,30.65125 C301.06425,31.403 301.23475,32.04625 301.506,32.57325 C301.77725,33.10025 302.13375,33.5265 302.56775,33.85975 C303.00175,34.193 303.49775,34.43325 304.0635,34.5805 C304.62925,34.72775 305.23375,34.80525 305.877,34.80525 C306.62875,34.80525 307.27975,34.71225 307.83,34.5185 C308.38025,34.3325 308.82975,34.07675 309.17075,33.75125 C309.5195,33.4335 309.77525,33.05375 309.938,32.63525 C310.10075,32.209 310.186,31.7595 310.186,31.2945 C310.186,30.63575 310.03875,30.101 309.7365,29.69025 C309.43425,29.2795 309.04675,28.94625 308.56625,28.6905 C308.08575,28.43475 307.5355,28.2255 306.9155,28.06275 C306.2955,27.90775 305.66,27.75275 305.009,27.6055 C304.358,27.45825 303.7225,27.28 303.1025,27.0785 C302.4825,26.877 301.93225,26.598 301.45175,26.257 C300.97125,25.90825 300.58375,25.4665 300.28925,24.924 C299.987,24.3815 299.83975,23.69175 299.83975,22.8625 C299.83975,22.28125 299.96375,21.7155 300.204,21.16525 C300.44425,20.615 300.8085,20.12675 301.289,19.7005 C301.7695,19.27425 302.36625,18.941 303.09475,18.68525 C303.8155,18.43725 304.6525,18.3055 305.59025,18.3055 C306.528,18.3055 307.38825,18.43725 308.10125,18.7085 C308.81425,18.97975 309.411,19.344 309.88375,19.80125 C310.3565,20.26625 310.70525,20.801 310.9455,21.41325 C311.178,22.0255 311.302,22.6765 311.302,23.36625 L309.7675,23.36625 C309.7675,22.723 309.65125,22.165 309.4265,21.69225 C309.20175,21.2195 308.89175,20.83975 308.4965,20.5375 C308.10125,20.243 307.65175,20.01825 307.15575,19.87875 C306.652,19.73925 306.13275,19.6695 305.598,19.6695 C304.78425,19.6695 304.0945,19.78575 303.5365,20.0105 C302.9785,20.23525 302.53675,20.52975 302.2035,20.894 C301.87025,21.25825 301.6455,21.6535 301.5215,22.09525 C301.3975,22.537 301.37425,22.97875 301.45175,23.41275 C301.54475,23.963 301.7695,24.40475 302.1105,24.73025 C302.45925,25.0635 302.87775,25.33475 303.3815,25.544 C303.88525,25.75325 304.4355,25.9315 305.04,26.06325 C305.6445,26.195 306.2645,26.34225 306.89225,26.4895 C307.52,26.63675 308.13225,26.815 308.72125,27.0165 C309.31025,27.218 309.8295,27.497 310.28675,27.838 C310.744,28.18675 311.10825,28.6285 311.3795,29.171 C311.65075,29.7135 311.79025,30.3955 311.79025,31.20925 C311.79025,32.7825 311.24775,33.99925 310.16275,34.8595 C309.07775,35.71975 307.551,36.15375 305.59025,36.15375 C304.70675,36.15375 303.893,36.0375 303.14125,35.81275 C302.3895,35.588 301.7385,35.23925 301.18825,34.77425 C300.638,34.30925 300.21175,33.73575 299.90175,33.05375 C299.59175,32.37175 299.4445,31.56575 299.4445,30.63575 L301.00225,30.63575 L301.00225,30.65125 Z" id="path78"></path>
            <polygon id="polygon80" points="19.32075 7.29275 28.14025 32.23225 25.66025 34.72 15.15125 27.0165 20.28175 40.16825 16.91825 43.37675 0 26.62125 3.37125 23.1725 13.22925 32.79025 7.13775 19.32075 10.7415 15.872 20.68475 25.9005 15.717 10.82675"></polygon>
            <polygon id="polygon82" points="31.186 29.5895 34.55725 26.0555 29.264 9.13725 40.4085 20.20425 43.6945 16.84075 26.62125 0 23.41275 3.286"></polygon>
            <polygon id="polygon84" points="24.29625 50.6695 36.5645 38.564 21.886 48.50725 18.6 45.22125 45.0585 18.6 48.3445 21.886 37.045 33.4335 51.4755 24.6915 54.52125 27.8225 28.14025 54.59875"></polygon>
        </g>
    </g>
</svg>