<?xml version="1.0" encoding="UTF-8" standalone="no"?><!DOCTYPE svg PUBLIC "-//W3C//DTD SVG 1.1//EN" "http://www.w3.org/Graphics/SVG/1.1/DTD/svg11.dtd"><svg width="100%" height="100%" viewBox="0 0 9375 2346" version="1.1" xmlns="http://www.w3.org/2000/svg" xmlns:xlink="http://www.w3.org/1999/xlink" xml:space="preserve" xmlns:serif="http://www.serif.com/" style="fill-rule:evenodd;clip-rule:evenodd;stroke-linejoin:round;stroke-miterlimit:2;"><g><path d="M5126.58,975.196c46.271,-114.421 97.896,-228.613 153.292,-329.825c-82.692,-61.417 -162.092,-193.859 -194.717,-252.538c-11.716,13.313 -19.32,28.642 -22.771,41.113c-30.733,110.971 78.671,244.971 -9.45,196.012c-73.42,-40.796 -238.745,-130.137 -301.804,-41.341c70.625,90.75 255.35,319.062 375.45,386.579Z" style="fill:#dd552c;fill-rule:nonzero;"/><path d="M5279.88,645.371c53.679,-98.071 110.879,-183.963 170.188,-245.842c-0,0 -59.155,85.621 -143.642,256.779c51.167,14.092 196.892,43.009 399.871,-9.425c4.991,-36.887 -19.809,-77.458 -143.384,-91.041c-80.679,-8.859 96.834,-192.646 -31.762,-279.563c-4.15,-2.812 -8.234,-5.291 -12.229,-7.512c-4.313,-1.55 -8.867,-2.967 -13.725,-4.23c-150.188,-39.191 -171.009,215.476 -230.938,160.73c-96.85,-88.467 -157.979,-67.796 -189.096,-32.434c32.625,58.68 112.025,191.121 194.717,252.538Z" style="fill:#f79a23;fill-rule:nonzero;"/><path d="M5005.79,1304.85c33.904,-101.567 74.687,-215.675 120.796,-329.654c-120.101,-67.517 -304.825,-295.829 -375.45,-386.579c-12.609,17.741 -21.226,42.487 -24.096,76.325c-15.404,181.766 172.116,316.333 134.733,340.912c-49.45,32.521 -147.867,-78.108 -186.658,-7.817c56.225,72.225 170.746,202.73 330.675,306.813Z" style="fill:#d22128;fill-rule:nonzero;"/><path d="M5525.38,912.842c-94.946,-33.863 99.217,-124.684 162.267,-221.029c8.066,-12.317 16.404,-28.238 18.666,-44.93c-202.979,52.434 -348.704,23.517 -399.871,9.425c-43.737,88.621 -94.241,200.3 -146.916,334.95c54.858,23.459 278.85,110.105 595.233,110.554c53.192,-138.55 -139.271,-156.845 -229.379,-188.97Z" style="fill:#dd552c;fill-rule:nonzero;"/><path d="M5042.5,1323.13c55.792,17.388 240.654,69.321 436.983,61.505c26.375,-71.413 -72.233,-78.384 -80.266,-135.655c-6.217,-44.316 259.504,37.242 345,-123.904c4.325,-8.15 7.695,-15.837 10.55,-23.267c-316.384,-0.449 -540.375,-87.095 -595.234,-110.554c-38.491,98.4 -78.087,208.838 -117.033,331.875Z" style="fill:#d22128;fill-rule:nonzero;"/><path d="M5042.5,1323.13c-25.067,79.196 -49.8,163.8 -73.808,253.213c-8.517,31.704 -16.929,63.996 -25.229,96.996c186.341,61.512 357.933,0.141 363.75,-75.925c0.045,-0.6 -0.063,-1.05 -0.03,-1.63c4.434,-80.562 -116.316,-35.904 -113.458,-84.345c2.867,-48.792 210.813,-0.284 275.121,-104.896c4.933,-8.021 8.146,-15.142 10.637,-21.908c-196.329,7.816 -381.191,-44.117 -436.983,-61.505Z" style="fill:#7c297d;fill-rule:nonzero;"/><path d="M4675.12,998.038c-2.717,4.924 -5.167,10.616 -7.258,17.42c-36.113,117.371 219.25,275.042 184.508,309.413c-31.317,30.971 -72.133,-39.804 -122.463,-10.571c-5.512,3.213 -11.112,7.263 -16.858,13.158c-56.921,58.313 -0.892,226.305 160.6,315.98c-37.687,126.533 -75.204,267.904 -111.933,415.75c13.325,-4.667 29.271,-9.346 33.237,-21.913c5.959,-24.496 42.788,-173.558 102.584,-375.779c-0,-0 10.912,-41.421 30.891,-109.671c18.475,-63.108 44.725,-149.175 77.367,-246.975c-159.929,-104.083 -274.45,-234.588 -330.675,-306.813Z" style="fill:#7c297d;fill-rule:nonzero;"/></g><path id="path4328" d="M8792.46,721.342c1.684,1.346 2.525,4.208 2.525,8.587c0,4.375 -0.841,8.417 -2.525,12.121l-0.504,4.042c-1.35,3.029 -2.862,5.554 -4.546,7.575c-1.345,1.683 -3.537,3.029 -6.566,4.037c-3.029,0.675 -7.238,1.013 -12.625,1.013c-5.388,-0.338 -9.934,-0.505 -13.638,-0.505l-7.575,0c-1.683,0.671 -3.2,0.842 -4.546,0.505c-1.345,-0.338 -2.695,-0.171 -4.041,0.504c-3.704,1.346 -6.9,4.546 -9.596,9.596c-1.008,1.683 -1.683,3.704 -2.021,6.062c-0.333,2.354 -0.671,4.713 -1.008,7.071l-24.242,119.192c-0.337,1.683 -0.504,3.196 -0.504,4.546c-0,1.345 -0.338,2.691 -1.013,4.037l-1.008,4.042c-0.337,1.008 -0.675,2.02 -1.012,3.029c-0,1.012 -0.505,1.854 -1.513,2.525c-1.35,2.696 -3.537,4.546 -6.567,5.558c-1.683,0.671 -3.704,1.008 -6.062,1.008l-22.725,0c-5.725,0 -9.596,-1.345 -11.617,-4.041c-1.012,-2.021 -1.346,-4.375 -1.012,-7.071c0.675,-2.692 1.35,-5.721 2.021,-9.088l23.737,-119.195c0.338,-1.684 0.675,-3.367 1.013,-5.05c0.67,-1.684 0.841,-3.196 0.504,-4.546l1.008,-7.071c0.338,-5.383 -1.346,-8.754 -5.05,-10.1c-3.029,-1.683 -7.575,-2.354 -13.637,-2.021c-5.721,0.338 -10.771,0.508 -15.15,0.508c-1.684,0 -3.367,0.167 -5.05,0.505c-1.346,-0 -2.525,-0.171 -3.534,-0.505c-1.35,-0.675 -2.529,-0.841 -3.537,-0.508c-1.009,0 -2.021,-0.167 -3.029,-0.504c-3.367,-1.683 -4.884,-4.375 -4.546,-8.079c0.337,-3.704 1.008,-8.084 2.021,-13.134c0.337,-2.02 0.67,-3.87 1.008,-5.554c0.675,-1.683 1.517,-3.366 2.525,-5.05c1.012,-1.683 2.358,-2.862 4.042,-3.537c1.683,-1.009 3.366,-1.85 5.05,-2.525c1.008,-0.338 1.683,-0.338 2.02,-0c0.671,-0 1.513,-0.167 2.525,-0.504l134.85,-0c3.03,-0 5.892,0.166 8.584,0.504c2.696,-0 4.883,0.675 6.566,2.021Zm268.688,1.012c1.346,2.354 1.683,5.05 1.008,8.079c-0.337,3.029 -0.841,6.396 -1.512,10.1l-32.829,164.142c-0.675,3.704 -1.517,7.071 -2.525,10.1c-0.675,2.696 -1.855,5.05 -3.538,7.071c-2.354,2.696 -6.058,4.041 -11.108,4.041l-14.142,0c-2.021,0 -4.208,0.167 -6.567,0.505c-2.02,-0 -3.704,-0.338 -5.05,-1.009c-3.033,-1.012 -4.883,-2.525 -5.558,-4.546c-0.333,-2.02 -0.504,-4.545 -0.504,-7.575l1.517,-8.587c-0,-1.008 0.166,-2.188 0.504,-3.533c0.337,-1.684 0.675,-3.2 1.008,-4.546l13.133,-64.142c0.675,-4.042 1.346,-8.083 2.021,-12.121c1.009,-4.041 1.513,-7.746 1.513,-11.112c-0.334,-1.684 -0.504,-3.029 -0.504,-4.042c-0,-1.346 -0.505,-2.354 -1.513,-3.029c-0.337,-0.338 -0.842,-0.504 -1.517,-0.504c-1.008,0.671 -2.187,1.346 -3.537,2.021c-3.367,4.037 -6.396,8.583 -9.088,13.633c-2.695,5.054 -5.558,9.933 -8.587,14.65c-6.058,10.437 -11.954,21.042 -17.675,31.817c-5.725,10.437 -11.617,20.708 -17.679,30.808c-2.692,4.712 -5.554,10.1 -8.584,16.162c-3.033,5.721 -6.566,9.934 -10.608,12.625c-2.021,1.346 -4.375,2.188 -7.071,2.525l-16.162,0c-1.684,-0.675 -3.196,-1.179 -4.546,-1.516c-1.346,-0.671 -2.525,-1.513 -3.533,-2.525c-1.009,-1.009 -1.684,-2.354 -2.021,-4.038c-0.338,-1.683 -0.671,-3.366 -1.009,-5.05c-1.012,-3.033 -1.683,-6.062 -2.02,-9.091c-0.338,-3.367 -0.842,-6.734 -1.517,-10.105c-2.021,-9.762 -3.704,-19.695 -5.05,-29.795c-1.346,-10.438 -3.029,-20.538 -5.05,-30.305c-1.008,-5.725 -2.021,-11.445 -3.029,-17.17c-0.675,-5.725 -2.525,-10.605 -5.559,-14.646c-0.67,-0 -1.175,0.166 -1.512,0.504l-1.013,-0c-1.683,1.346 -2.862,2.862 -3.533,4.546c-1.012,1.683 -1.683,3.366 -2.021,5.05c0,1.346 -0.337,2.862 -1.008,4.546l-1.517,8.587c-0.675,1.346 -1.179,2.692 -1.516,4.038c-0.334,1.35 -0.505,2.525 -0.505,3.537l-12.12,58.583c-0.675,4.38 -1.684,9.767 -3.03,16.163c-1.012,6.062 -2.525,10.437 -4.545,13.133c-1.013,0.671 -2.021,1.513 -3.03,2.525c-0.675,0.671 -1.516,1.179 -2.529,1.513c-1.683,0.675 -3.7,1.179 -6.058,1.516l-20.204,0c-4.375,0 -7.742,-1.008 -10.1,-3.029c-1.684,-1.346 -2.525,-3.537 -2.525,-6.566c0.337,-3.03 0.841,-6.396 1.516,-10.1l33.334,-166.667c0.671,-3.033 1.346,-5.892 2.021,-8.588c1.008,-3.029 2.187,-5.387 3.533,-7.07c1.683,-2.355 4.379,-3.871 8.083,-4.546c1.009,-0.338 1.684,-0.338 2.017,-0c0.675,-0 1.517,-0.167 2.525,-0.504l43.942,-0c3.366,-0 5.891,0.841 7.575,2.525c2.695,2.02 4.208,5.22 4.545,9.595c0.675,4.38 1.517,8.417 2.525,12.121c1.684,9.429 3.367,19.025 5.05,28.788c1.684,9.429 3.367,19.025 5.05,28.787c1.35,5.054 2.359,10.271 3.034,15.659c1.008,5.387 2.016,10.604 3.029,15.658c0.671,2.017 1.179,4.208 1.512,6.562c0.675,2.021 2.021,3.367 4.042,4.042c1.683,0.675 3.2,0.338 4.546,-1.008c1.683,-1.35 2.862,-2.525 3.537,-3.538c3.367,-3.704 6.059,-7.575 8.08,-11.616c2.358,-4.375 4.712,-8.584 7.07,-12.625c7.071,-11.113 13.638,-22.392 19.696,-33.838c6.4,-11.787 13.134,-23.233 20.204,-34.346c2.692,-4.712 5.388,-9.596 8.08,-14.646c3.029,-5.387 7.07,-9.091 12.12,-11.112c2.359,-0.671 4.713,-1.008 7.071,-1.008l36.363,-0c2.021,-0.338 3.875,-0.338 5.558,-0l2.525,-0c1.346,0.675 2.692,1.179 4.038,1.516c1.687,0.338 2.695,1.009 3.033,2.021Z" style="fill-rule:nonzero;"/><path id="path1" d="M2866.07,2092.43c-150.088,-13.46 -253.806,-82.277 -287.76,-190.93c-30.902,-98.885 -17.816,-209.252 38.457,-324.325c32.852,-67.182 117.72,-150.531 186.529,-183.192c63.217,-30.007 148.971,-58.338 205.759,-67.977c59.39,-10.081 180.315,-26.556 233.658,-31.834c65.006,-6.432 196.693,-35.197 222.697,-48.644c65.175,-33.703 107.043,-114.49 91.442,-176.444c-10.744,-42.671 -24.985,-61.992 -61.436,-83.353c-26.917,-15.775 -41.492,-18.79 -104.363,-21.586c-81.589,-3.628 -134.097,5.105 -183.215,30.471c-45.565,23.532 -65.58,42.437 -102.915,97.208c-44.598,65.424 -52.14,67.683 -216.76,64.919c-117.137,-1.967 -128.696,-3.28 -137.754,-15.685c-15.065,-20.631 -12.118,-39.46 14.385,-91.891c71.44,-141.33 176.549,-226.291 347.578,-280.952c113.514,-36.279 187.988,-44.764 356.551,-40.621c117.057,2.877 158.635,6.568 204.42,18.146c147.905,37.402 237.485,118.035 252.283,227.086c7.77,57.256 -0.281,108.097 -79.93,504.633c-52.358,260.672 -75.176,389.871 -79.987,452.908c-3.703,48.509 -8.552,93.931 -10.776,100.938c-8.95,28.2 -36.919,33.521 -175.337,33.357c-146.719,-0.153 -152.134,-1.742 -171.749,-49.741c-16.018,-39.197 -29.597,-39.148 -110.793,0.409c-88.834,43.269 -179.961,67.993 -284.512,77.193c-44.116,3.883 -74.223,4.631 -83.377,4.631c-6.148,0 -30.488,-1.792 -63.095,-4.715l-0,-0.009Zm336.194,-237.704c88.4,-18.702 157.053,-64.357 204.685,-136.117c49.452,-74.503 88.258,-223.244 65.422,-250.76c-10.644,-12.826 -6.135,-13.173 -180.834,13.925c-174.259,27.029 -232.875,46.454 -288.841,95.718c-40.966,36.058 -56.872,63.208 -67.574,115.338c-10.403,50.67 -2.703,86.568 25.843,120.493c34.69,41.226 149.235,60.88 241.299,41.403Zm2994.3,233.426c-82.623,-17.451 -121.141,-29.631 -175.904,-55.623c-51.008,-24.209 -74.873,-40.975 -115.398,-81.071c-109.659,-108.498 -149.964,-234.684 -137.079,-429.165c6.777,-102.277 16.471,-147.046 53.191,-245.636c49.332,-132.45 99.583,-210.499 200.169,-310.901c117.667,-117.449 252.423,-194.316 398.217,-227.152c91.88,-20.693 240.52,-22.113 313.869,-2.999c101.302,26.396 201.55,85.476 252.41,148.753c14.621,18.191 30.255,36.974 34.741,41.739c4.487,4.768 11.977,20.463 16.646,34.884c4.67,14.421 15.546,40.344 24.172,57.606c20.098,40.223 38.228,146.034 38.154,222.681c-0.051,78.348 -11.604,176.833 -24.241,207.079c-19.658,47.046 -13.154,46.429 -474.735,45.041c-258.129,-0.777 -418.628,1.338 -430.015,5.668c-9.992,3.797 -26.321,15.701 -36.287,26.449c-15.36,16.566 -18.12,25.969 -18.12,61.741c-0,128.542 55.515,205.624 165.757,230.15c133.528,29.707 269.973,-8.456 377.217,-105.506c22.738,-20.577 49.746,-40.608 60.019,-44.514c10.273,-3.904 66.775,-7.101 125.561,-7.101c93.997,-0 108.825,1.574 122.984,13.037c14.854,12.028 15.467,15.151 7.917,40.35c-10.106,33.728 -113.754,164.482 -163.667,206.468c-100.865,84.845 -217.315,139.479 -344.842,161.786c-56.608,9.902 -234.03,13.989 -270.736,6.236Zm540.93,-836.072c16.271,-18.923 14.876,-30.52 10.797,-72.675c-11.637,-120.265 -93.477,-189.165 -225.087,-189.5c-122.497,-0.306 -228.179,55.459 -296.923,156.69c-23.051,33.944 -29.121,49.206 -29.384,73.884c-0.532,49.927 -2.734,49.551 277.529,47.496c0,0 199.143,0.871 242.987,-1.778c8.168,-0.493 20.081,-14.117 20.081,-14.117Zm-6401.11,805.714c-31.661,-12.757 -32.497,-27.151 -8.828,-151.967c40.584,-214.015 313.564,-1565.81 321.645,-1592.78c15.865,-52.952 5.386,-50.994 284.867,-53.225l249.693,-1.993l18.225,15.943c15.918,13.925 19.572,25.655 28.863,92.666c5.851,42.198 18.378,126.943 27.837,188.322c9.459,61.378 26.714,185.357 38.344,275.507c11.631,90.15 30.161,220.406 41.178,289.457c11.017,69.051 23.609,153.796 27.981,188.321c20.136,158.983 44.034,167.026 111.466,37.513c407.078,-781.853 547.301,-1044.2 569.053,-1064.65c0,0 13.13,-22.755 24.203,-22.755c44.663,-0 252.581,1.829 252.581,1.829c0,0 207.842,1.829 252.581,1.829c3.637,0 10.728,19.146 10.728,19.146c10.158,18.13 1.694,64.212 -159.503,868.371c-93.626,467.074 -174.334,859.539 -179.351,872.144c-14.861,37.34 -39.592,43.342 -178.587,43.342c-156.443,-0 -179.423,-6.395 -179.673,-49.999c-0.057,-10.237 36.154,-198.558 80.473,-418.492c44.319,-219.934 85.083,-427.019 90.586,-460.19c5.504,-33.171 14.707,-80.251 20.452,-104.623c12.611,-53.494 13.903,-121.692 2.44,-128.776c-16.699,-10.32 -63.084,63.749 -207.959,332.071c-67.174,124.414 -162.132,297.567 -198.903,362.693c-16.245,28.772 -49.308,89.976 -73.475,136.01c-44.807,85.351 -142.33,259.503 -162.885,290.874c-19.945,30.44 -42.051,35.835 -159.658,38.97c-160.163,4.267 -163.303,1.988 -182.606,-132.507c-5.666,-39.484 -16.546,-112.592 -24.177,-162.463c-7.631,-49.87 -21.795,-142.461 -31.475,-205.758c-9.68,-63.297 -31.833,-212.385 -49.228,-331.306c-34.102,-233.127 -46.052,-293.199 -61.373,-308.52c-8.461,-8.461 -11.299,-8.366 -20.341,0.674c-12.066,12.067 -32.127,69.87 -40.238,115.941c-30.626,173.965 -198.122,976.255 -206.478,989.007c-20.413,31.155 -47.66,36.43 -185.705,35.951c-70.133,-0.255 -134.372,-3.204 -142.753,-6.581l0,0.004Zm3996.39,-3.276c-13.609,-5.917 -23.706,-16.093 -25.681,-25.883c-9.369,-46.429 -20.397,-118.628 -46.143,-302.101c-15.611,-111.25 -34.401,-241.505 -41.755,-289.457c-7.354,-47.953 -18.224,-123.281 -24.156,-167.397c-5.932,-44.116 -16.86,-121.014 -24.286,-170.884c-21.042,-141.326 -35.441,-255.869 -35.348,-281.197c0.205,-56.069 21.808,-64.157 170.267,-63.756c120.917,0.307 166.904,5.974 183.455,22.526c11.54,11.539 13.095,22.522 43.679,308.477c29.083,271.915 54.086,475.932 59.379,484.495c2.458,3.976 12.201,7.233 21.649,7.233c12.742,-0 22.281,-8.045 36.932,-31.146l19.752,-31.146l22.131,34.155c12.173,18.785 43.645,54.072 69.939,78.416l47.806,44.261l-33.792,125.358c-18.585,68.947 -40.983,152.037 -49.772,184.644c-22.725,84.307 -21.269,83.751 -218.184,83.415c-115.599,-0.205 -158.978,-2.668 -175.872,-10.013Zm2873.61,3.184c-8.517,-3.429 -17.647,-14.846 -20.289,-25.374c-3.215,-12.812 25.928,-173.81 88.121,-486.799c118.691,-597.316 149.089,-739.014 163.139,-760.458c16.378,-24.996 35.27,-28.041 173.927,-28.041c143.7,-0 144.164,0.204 144.164,63.608c0,32.355 11.326,58.452 25.369,58.452c7.207,-0 33.353,-16.279 64.434,-40.114c47.566,-36.478 164.682,-91.074 220.578,-102.826c57.953,-12.185 216.555,-13.887 269.933,-2.898c56.747,11.683 133.62,52.235 166.368,87.763c15.797,17.136 38.653,52.123 50.793,77.747c22.005,46.448 22.072,46.937 22.072,161.674c0,107.728 -1.921,124.673 -30.009,265.045c-81.595,407.75 -135.246,668.355 -141.909,689.308c-14.188,44.62 -33.883,49.973 -183.992,50.002c-155.256,0.031 -163.718,-2.611 -163.718,-51.157c0,-16.207 28.144,-169.99 62.542,-341.74c87.476,-436.769 94.455,-489.786 73.68,-559.746c-12.519,-42.154 -50.694,-81.654 -93.506,-96.749c-96.417,-33.997 -245.583,7.567 -318.593,88.772c-67.235,74.781 -86.042,139.101 -185.035,632.827c-37.681,187.937 -59.325,281.05 -68.093,292.945c-7.069,9.59 -23.545,21.183 -36.612,25.762c-28.123,9.854 -259.78,11.487 -283.364,1.998l0,-0.001Z" style="fill-rule:nonzero;"/></svg>