<?xml version="1.0" encoding="UTF-8" standalone="no"?><!DOCTYPE svg PUBLIC "-//W3C//DTD SVG 1.1//EN" "http://www.w3.org/Graphics/SVG/1.1/DTD/svg11.dtd"><svg width="100%" height="100%" viewBox="0 0 2250 563" version="1.1" xmlns="http://www.w3.org/2000/svg" xmlns:xlink="http://www.w3.org/1999/xlink" xml:space="preserve" xmlns:serif="http://www.serif.com/" style="fill-rule:evenodd;clip-rule:evenodd;stroke-linejoin:round;stroke-miterlimit:2;"><rect id="Maven-logo" serif:id="Maven logo" x="0" y="0" width="2250" height="562.5" style="fill:none;"/><path id="path4317" d="M179.874,62.083l98.788,0c6.868,0 11.717,1.414 14.545,4.243c2.424,2.02 3.838,5.05 4.242,9.091c0.405,3.636 1.011,7.272 1.819,10.909c0.808,6.464 1.616,13.131 2.424,20c1.212,6.464 2.222,13.131 3.03,20c4.445,25.454 8.081,51.313 10.909,77.576c3.233,26.262 7.071,52.323 11.515,78.181c1.617,8.081 2.829,16.364 3.637,24.849c0.808,8.485 2.02,16.767 3.636,24.848c0.404,2.021 0.808,4.041 1.212,6.061c0.404,2.02 1.414,3.636 3.031,4.848c0.808,0.404 1.414,0.808 1.818,1.213c0.808,0.404 1.818,0.202 3.03,-0.607c3.232,-0.808 5.859,-3.232 7.879,-7.272c2.02,-4.041 4.04,-7.677 6.06,-10.909c4.849,-9.293 9.495,-18.384 13.94,-27.273c4.444,-9.293 9.293,-18.586 14.545,-27.879c12.93,-24.646 25.859,-49.293 38.788,-73.939c13.334,-25.051 26.465,-50.101 39.394,-75.152c3.232,-6.464 6.465,-12.727 9.697,-18.788c3.636,-6.464 7.071,-12.929 10.303,-19.394c1.616,-3.232 3.435,-6.464 5.455,-9.697c2.02,-3.232 4.848,-5.858 8.485,-7.878c2.828,-2.021 6.06,-3.031 9.697,-3.031l104.242,0c4.04,0 6.869,0.808 8.485,2.425c4.04,2.424 5.252,7.07 3.636,13.939c-1.212,6.465 -2.424,13.131 -3.636,20l-18.182,90.909l-45.455,225.455l-10.303,52.727c-0.808,4.444 -1.818,8.889 -3.03,13.333c-1.212,4.041 -3.232,7.071 -6.061,9.091c-2.828,2.02 -6.06,3.232 -9.696,3.636l-57.576,0c-2.829,-0.808 -5.455,-1.414 -7.879,-1.818c-2.02,-0.404 -3.636,-1.818 -4.849,-4.242c-1.212,-2.02 -1.616,-4.647 -1.212,-7.879c0.808,-3.232 1.617,-6.667 2.425,-10.303l6.06,-30.909l31.515,-155.758c0.808,-5.656 1.617,-10.909 2.425,-15.757c1.212,-5.253 2.222,-10.505 3.03,-15.758c0.808,-3.232 1.616,-6.464 2.424,-9.697c0.808,-3.636 1.212,-7.07 1.212,-10.303c-0.404,-2.828 -0.404,-5.858 0,-9.091c0.808,-3.232 0.202,-5.252 -1.818,-6.06c-1.212,-0.404 -2.222,-0.202 -3.03,0.606c-0.808,0.808 -1.414,1.414 -1.818,1.818c-2.021,1.616 -3.839,3.636 -5.455,6.061c-1.212,2.02 -2.424,4.04 -3.636,6.06c-3.637,6.061 -7.273,12.323 -10.909,18.788c-3.233,6.465 -6.869,12.929 -10.909,19.394c-1.213,2.424 -2.425,4.848 -3.637,7.273c-0.808,2.424 -2.02,4.848 -3.636,7.272c-3.233,5.253 -6.263,10.506 -9.091,15.758c-2.424,5.253 -5.253,10.505 -8.485,15.758c-0.808,1.212 -1.414,2.626 -1.818,4.242c-0.404,1.212 -1.01,2.424 -1.818,3.636c-2.425,3.637 -4.647,7.475 -6.667,11.516c-1.616,4.04 -3.838,8.08 -6.667,12.121c-2.424,3.636 -4.646,7.475 -6.666,11.515c-1.616,4.04 -3.637,8.081 -6.061,12.121c-7.273,11.717 -13.939,23.636 -20,35.758c-6.061,11.717 -12.323,23.434 -18.788,35.151c-1.212,1.212 -2.02,2.424 -2.424,3.637c-0,1.212 -0.606,2.424 -1.818,3.636c-2.829,4.444 -5.455,9.091 -7.879,13.939c-2.02,4.445 -4.444,8.889 -7.273,13.334c-1.616,2.828 -3.232,5.454 -4.848,7.878c-1.616,2.425 -3.435,4.445 -5.455,6.061c-2.424,1.616 -4.646,2.626 -6.666,3.03c-2.021,0 -4.647,0.404 -7.879,1.212l-13.94,0c-2.828,0 -6.262,0.203 -10.303,0.607l-11.515,-0c-3.636,-0 -7.071,-0.202 -10.303,-0.607c-3.232,-0.404 -5.454,-1.212 -6.667,-2.424c-2.828,-2.02 -4.646,-4.242 -5.454,-6.666c-0.404,-2.829 -1.212,-6.061 -2.424,-9.697c-0.808,-4.849 -1.414,-9.697 -1.818,-14.546c-0.405,-5.252 -1.213,-10.303 -2.425,-15.151l-0.606,-5.455c-1.212,-4.848 -2.02,-9.899 -2.424,-15.151c-0.404,-5.657 -1.212,-10.91 -2.424,-15.758l-0,-3.03c-0,-1.212 -0.202,-2.425 -0.606,-3.637c-1.212,-3.636 -2.021,-7.474 -2.425,-11.515c-0.404,-4.04 -1.01,-8.081 -1.818,-12.121l0,-3.03c0,-1.212 -0.202,-2.223 -0.606,-3.031c-0.808,-4.04 -1.414,-8.08 -1.818,-12.121c0,-4.04 -0.606,-8.081 -1.818,-12.121c-1.616,-8.081 -3.03,-16.566 -4.243,-25.455c-0.808,-8.888 -2.02,-17.575 -3.636,-26.06c-1.616,-10.101 -3.03,-20.404 -4.242,-30.909c-0.808,-10.505 -2.627,-20.606 -5.455,-30.303c-0.808,-5.657 -2.02,-10.303 -3.636,-13.94c-0.808,-0.808 -1.616,-1.414 -2.425,-1.818c-0.404,-0.808 -1.212,-0.808 -2.424,0c-2.424,1.212 -4.04,3.232 -4.848,6.061c-0.404,2.828 -1.212,5.656 -2.425,8.485c-1.616,2.828 -2.626,5.858 -3.03,9.09c-0.404,2.829 -0.808,5.859 -1.212,9.091c-0.808,4.445 -1.818,8.889 -3.03,13.334c-0.808,4.444 -1.818,8.889 -3.031,13.333l-32.121,161.212l-6.06,29.697c-0.808,3.232 -1.617,6.465 -2.425,9.697c-0.404,3.232 -1.616,5.859 -3.636,7.879c-2.02,2.828 -5.455,4.646 -10.303,5.454c-2.828,0.809 -5.859,1.213 -9.091,1.213c-3.232,-0.404 -6.465,-0.607 -9.697,-0.607l-43.636,0c-3.637,-0.404 -6.465,-1.616 -8.485,-3.636c-2.02,-2.02 -2.828,-5.05 -2.424,-9.091c0.808,-4.444 1.616,-8.889 2.424,-13.333l10.303,-53.333l45.454,-225.455l16.97,-84.848c0.404,-2.425 0.808,-5.253 1.212,-8.485c0.808,-3.637 1.616,-7.071 2.425,-10.303c0.808,-3.233 1.616,-6.263 2.424,-9.091c1.212,-3.233 2.222,-5.657 3.03,-7.273c2.424,-2.828 6.061,-4.848 10.909,-6.061c1.212,-0.404 2.02,-0.404 2.424,0c0.809,0 1.819,-0.202 3.031,-0.606Z" style="fill-rule:nonzero;"/><path id="path4319" d="M904.268,469.962c-0,4.445 -0.404,8.889 -1.212,13.333c-0.808,4.445 -3.435,7.475 -7.879,9.091c-2.828,1.212 -5.859,1.819 -9.091,1.819l-53.333,-0c-3.233,-0.404 -5.657,-1.415 -7.273,-3.031c-2.424,-1.616 -4.041,-3.838 -4.849,-6.666c-0.808,-3.233 -2.222,-5.859 -4.242,-7.879c-0.808,-0.808 -1.818,-1.414 -3.03,-1.818c-0.808,-0.808 -2.223,-1.01 -4.243,-0.606c-2.424,0.808 -4.646,1.818 -6.666,3.03c-2.021,1.212 -4.041,2.222 -6.061,3.03c-2.424,1.616 -5.051,3.03 -7.879,4.243c-2.424,1.212 -5.05,2.424 -7.879,3.636c-5.656,2.424 -11.515,4.444 -17.575,6.061c-6.061,1.212 -12.122,2.626 -18.182,4.242c-3.233,0.808 -6.263,1.212 -9.091,1.212c-2.424,0.404 -5.051,0.808 -7.879,1.212l-3.636,0c-1.212,0.404 -2.425,0.606 -3.637,0.606l-6.666,0c-4.445,0.808 -8.485,0.808 -12.122,0l-5.454,0c-2.828,-0.808 -5.657,-1.212 -8.485,-1.212c-2.424,0.404 -4.848,0.202 -7.273,-0.606c-3.636,-0.808 -7.272,-1.616 -10.909,-2.424c-3.636,-0.404 -6.868,-1.414 -9.697,-3.03c-10.909,-4.445 -19.798,-10.101 -26.666,-16.97c-6.869,-7.273 -11.516,-16.768 -13.94,-28.485c-0.808,-2.828 -1.414,-5.859 -1.818,-9.091c0,-3.232 -0.202,-6.667 -0.606,-10.303c-0.404,-2.02 -0.404,-4.04 -0,-6.061c0.808,-2.02 1.212,-4.04 1.212,-6.06c0,-1.212 0.202,-3.637 0.606,-7.273c0.808,-4.04 1.616,-6.869 2.424,-8.485c1.617,-4.04 2.627,-7.474 3.031,-10.303c2.02,-4.444 4.04,-8.889 6.06,-13.333c2.425,-4.849 5.051,-9.091 7.879,-12.727c8.889,-11.718 18.384,-20.606 28.485,-26.667c10.101,-6.061 22.626,-11.313 37.576,-15.758c5.656,-2.02 11.313,-3.434 16.969,-4.242c5.657,-0.808 11.516,-1.818 17.576,-3.03c3.232,-0.808 6.667,-1.212 10.303,-1.212c4.041,-0.404 7.879,-1.011 11.515,-1.819c2.829,-0.808 5.657,-1.01 8.485,-0.606c2.828,0 6.061,-0.404 9.697,-1.212c2.828,-0.808 5.657,-1.212 8.485,-1.212c2.828,0 5.859,-0.404 9.091,-1.212c8.889,-2.02 16.97,-3.636 24.242,-4.849c7.677,-1.616 14.95,-5.252 21.819,-10.909c4.04,-3.636 7.272,-7.676 9.696,-12.121c0.405,-1.212 0.607,-2.222 0.607,-3.03c-0,-0.808 0.202,-1.616 0.606,-2.424c0.808,-0.808 1.212,-2.021 1.212,-3.637c0.404,-1.616 0.808,-2.828 1.212,-3.636l-0,-9.091c-1.616,-12.121 -8.485,-20.404 -20.606,-24.849c-3.233,-1.212 -7.475,-2.02 -12.727,-2.424c-4.849,-0.808 -9.899,-1.01 -15.152,-0.606c-5.253,0 -10.505,0.404 -15.758,1.212c-4.848,0.808 -9.09,1.818 -12.727,3.031c-2.828,0.808 -5.454,2.02 -7.879,3.636c-2.424,1.212 -4.848,2.626 -7.272,4.242c-2.425,1.617 -5.051,3.839 -7.879,6.667c-2.828,2.828 -4.849,5.455 -6.061,7.879c-2.828,4.04 -5.252,7.879 -7.272,11.515c-2.021,3.636 -5.455,6.061 -10.304,7.273c-3.232,0.808 -6.666,1.212 -10.303,1.212l-33.939,-0c-2.02,-0 -4.242,0.202 -6.667,0.606c-2.02,-0 -3.636,-0.202 -4.848,-0.606l-5.455,-0c-0.808,-0.404 -1.818,-0.606 -3.03,-0.606c-1.212,-0 -2.222,-0.404 -3.03,-1.212c-2.829,-0.808 -4.445,-3.435 -4.849,-7.879c0,-2.02 0.404,-4.041 1.212,-6.061c0.808,-2.02 1.617,-3.838 2.425,-5.454c2.02,-4.445 4.04,-8.485 6.06,-12.121c2.424,-4.041 4.849,-7.677 7.273,-10.91c1.616,-2.02 8.081,-10.101 9.697,-12.121c4.04,-4.444 8.889,-8.687 14.545,-12.727c1.213,-0.404 2.627,-1.414 4.243,-3.03c2.424,-1.617 4.444,-3.031 6.06,-4.243c2.021,-1.212 4.243,-2.424 6.667,-3.636c7.677,-4.445 15.556,-7.879 23.636,-10.303c8.485,-2.828 16.97,-5.455 25.455,-7.879c5.253,-1.212 10.505,-2.02 15.758,-2.424c5.252,-0.404 10.707,-1.212 16.363,-2.424c1.616,-0.404 4.041,-0.404 7.273,-0c3.232,0.404 5.454,0.202 6.667,-0.607c16.565,-0.404 32.121,0.203 46.666,1.819c14.95,1.616 28.081,4.646 39.394,9.091c11.717,4.444 21.212,10.505 28.485,18.181c7.677,7.273 12.727,16.768 15.152,28.485c1.212,6.869 1.212,14.748 -0,23.637c-1.213,8.888 -2.829,17.979 -4.849,27.272l-27.273,135.152c-1.212,7.677 -2.626,15.555 -4.242,23.636c-1.616,7.677 -2.222,14.748 -1.818,21.212c-0,1.212 -0.202,2.627 -0.606,4.243l-0,3.636Zm-70.303,-93.333c0.808,-2.02 1.414,-4.243 1.818,-6.667c0.404,-2.828 0.606,-5.252 0.606,-7.273c-0,-2.424 0.202,-4.646 0.606,-6.666c0.404,-2.02 -0.202,-3.637 -1.818,-4.849c-1.616,-1.616 -4.445,-2.424 -8.485,-2.424c-1.616,0.404 -3.03,0.808 -4.242,1.212c-1.213,0 -2.829,0.202 -4.849,0.606c-2.828,0.808 -5.859,1.414 -9.091,1.818c-3.232,0.404 -6.667,1.01 -10.303,1.819c-1.212,0.404 -3.03,0.606 -5.454,0.606c-5.657,1.212 -11.112,2.02 -16.364,2.424c-5.253,0.404 -10.505,1.414 -15.758,3.03c-3.232,0.808 -6.464,1.616 -9.697,2.424c-2.828,0.404 -5.656,1.213 -8.484,2.425c-9.293,3.636 -17.576,9.091 -24.849,16.363c-7.273,7.273 -11.515,17.374 -12.727,30.303c-0.404,6.869 0.808,12.526 3.636,16.97c1.616,4.444 5.051,8.081 10.303,10.909c5.253,2.424 11.111,4.243 17.576,5.455c6.465,1.212 13.333,1.616 20.606,1.212c7.677,-0.808 14.949,-2.222 21.818,-4.243c11.313,-3.232 20.606,-8.282 27.879,-15.151c7.677,-7.273 14.141,-16.162 19.394,-26.667c1.212,-2.828 2.222,-5.656 3.03,-8.485c0.808,-3.232 2.02,-6.464 3.637,-9.697l1.212,-5.454Z" style="fill-rule:nonzero;"/><g><path d="M1230.38,234.047c11.105,-27.461 23.495,-54.867 36.79,-79.158c-19.846,-14.74 -38.902,-46.526 -46.732,-60.609c-2.812,3.195 -4.637,6.874 -5.465,9.867c-7.376,26.633 18.881,58.793 -2.268,47.043c-17.621,-9.791 -57.299,-31.233 -72.433,-9.922c16.95,21.78 61.284,76.575 90.108,92.779Z" style="fill:#dd552c;fill-rule:nonzero;"/><path d="M1267.17,154.889c12.883,-23.537 26.611,-44.151 40.845,-59.002c-0,0 -14.197,20.549 -34.474,61.627c12.28,3.382 47.254,10.322 95.969,-2.262c1.198,-8.853 -4.754,-18.59 -34.412,-21.85c-19.363,-2.126 23.24,-46.235 -7.623,-67.095c-0.996,-0.675 -1.976,-1.27 -2.935,-1.803c-1.035,-0.372 -2.128,-0.712 -3.294,-1.015c-36.045,-9.406 -41.042,51.714 -55.425,38.575c-23.244,-21.232 -37.915,-16.271 -45.383,-7.784c7.83,14.083 26.886,45.869 46.732,60.609l0,0Z" style="fill:#f79a23;fill-rule:nonzero;"/><path d="M1201.39,313.164c8.137,-24.376 17.925,-51.762 28.991,-79.117c-28.824,-16.204 -73.158,-70.999 -90.108,-92.779c-3.026,4.258 -5.094,10.197 -5.783,18.318c-3.697,43.624 41.308,75.92 32.336,81.819c-11.868,7.805 -35.488,-18.746 -44.798,-1.876c13.494,17.334 40.979,48.655 79.362,73.635l-0,0Z" style="fill:#d22128;fill-rule:nonzero;"/><path d="M1326.09,219.082c-22.787,-8.127 23.812,-29.924 38.944,-53.047c1.936,-2.956 3.937,-6.777 4.48,-10.783c-48.715,12.584 -83.689,5.644 -95.969,2.262c-10.497,21.269 -22.618,48.072 -35.26,80.388c13.166,5.63 66.924,26.425 142.856,26.533c12.766,-33.252 -33.425,-37.643 -55.051,-45.353l-0,-0Z" style="fill:#dd552c;fill-rule:nonzero;"/><path d="M1210.2,317.552c13.39,4.173 57.757,16.637 104.876,14.761c6.33,-17.139 -17.336,-18.812 -19.264,-32.557c-1.492,-10.636 62.281,8.938 82.8,-29.737c1.038,-1.956 1.847,-3.801 2.532,-5.584c-75.932,-0.108 -129.69,-20.903 -142.856,-26.533c-9.238,23.616 -18.741,50.121 -28.088,79.65l0,0Z" style="fill:#d22128;fill-rule:nonzero;"/><path d="M1210.2,317.552c-6.016,19.007 -11.952,39.312 -17.714,60.771c-2.044,7.609 -4.063,15.359 -6.055,23.279c44.722,14.763 85.904,0.034 87.3,-18.222c0.011,-0.144 -0.015,-0.252 -0.007,-0.391c1.064,-19.335 -27.916,-8.617 -27.23,-20.243c0.688,-11.71 50.595,-0.068 66.029,-25.175c1.184,-1.925 1.955,-3.634 2.553,-5.258c-47.119,1.876 -91.486,-10.588 -104.876,-14.761Z" style="fill:#7c297d;fill-rule:nonzero;"/><path d="M1122.03,239.529c-0.652,1.182 -1.24,2.548 -1.742,4.181c-8.667,28.169 52.62,66.01 44.282,74.259c-7.516,7.433 -17.312,-9.553 -29.391,-2.537c-1.323,0.771 -2.667,1.743 -4.046,3.158c-13.661,13.995 -0.214,54.313 38.544,75.835c-9.045,30.368 -18.049,64.297 -26.864,99.78c3.198,-1.12 7.025,-2.243 7.977,-5.259c1.43,-5.879 10.269,-41.654 24.62,-90.187c-0,-0 2.619,-9.941 7.414,-26.321c4.434,-15.146 10.734,-35.802 18.568,-59.274c-38.383,-24.98 -65.868,-56.301 -79.362,-73.635Z" style="fill:#7c297d;fill-rule:nonzero;"/></g><path id="path4321" d="M1131.42,486.914c-2.216,2.414 -5.022,4.238 -8.417,5.472c-3.637,1.212 -7.273,1.819 -10.909,1.819c-3.637,-0.404 -7.273,-0.607 -10.909,-0.607l-52.728,0c-4.04,0 -7.474,-0.808 -10.303,-2.424c-2.424,-2.02 -4.04,-4.444 -4.848,-7.272c-0.404,-3.233 -0.808,-6.667 -1.212,-10.304c-1.212,-4.848 -2.223,-9.899 -3.031,-15.151c-0.404,-5.253 -1.01,-10.303 -1.818,-15.152c-0.404,-1.616 -0.606,-3.03 -0.606,-4.242c0,-1.616 -0.202,-3.434 -0.606,-5.455c-1.212,-4.848 -2.02,-9.899 -2.424,-15.151c-0.404,-5.253 -1.212,-10.505 -2.424,-15.758c-0.404,-2.02 -0.607,-3.838 -0.607,-5.454c0,-2.02 -0.202,-4.041 -0.606,-6.061c-0.808,-3.636 -1.414,-7.272 -1.818,-10.909c-0.404,-4.04 -1.01,-7.879 -1.818,-11.515c-0.404,-1.212 -0.606,-2.424 -0.606,-3.636c0.404,-1.617 0.404,-3.031 0,-4.243c-0.808,-3.636 -1.414,-7.273 -1.818,-10.909c-0.404,-3.636 -1.01,-7.475 -1.818,-11.515c-1.617,-9.293 -3.031,-18.788 -4.243,-28.485c-1.212,-10.101 -2.424,-20 -3.636,-29.697c-2.424,-10.909 -4.243,-21.818 -5.455,-32.727c-0.808,-11.313 -2.222,-22.424 -4.242,-33.333l-1.818,-16.364c-0.404,-1.212 -0.606,-2.626 -0.606,-4.243c0.404,-2.02 1.212,-3.838 2.424,-5.454c1.616,-2.828 4.848,-4.849 9.697,-6.061c2.02,0 3.434,-0.202 4.242,-0.606l44.243,0c4.444,0 8.687,0.202 12.727,0.606c4.04,0 7.273,0.808 9.697,2.425c4.04,2.828 6.061,8.08 6.061,15.757c0.404,7.273 1.212,13.738 2.424,19.394c1.616,13.333 3.03,27.071 4.242,41.212c1.212,13.738 2.626,27.475 4.243,41.212c1.616,9.697 2.828,19.596 3.636,29.697c0.808,10.101 2.02,19.798 3.636,29.091c0.404,3.637 0.808,7.475 1.212,11.515c0.809,4.041 3.435,6.061 7.879,6.061c1.212,-0.808 2.02,-1.212 2.425,-1.212l1.818,-1.818c1.616,-2.021 3.03,-4.041 4.242,-6.061c1.212,-2.02 2.424,-4.242 3.636,-6.667c0.074,-0.101 0.148,-0.203 0.221,-0.305c6.75,13.322 17.989,26.991 33.822,37.8c-7.806,26.845 -15.573,56.182 -23.201,86.73Z"/><path id="path4323" d="M1698.78,334.811c0,3.232 -0.808,6.868 -2.424,10.909c-1.616,4.04 -3.636,6.666 -6.061,7.878c-2.02,1.617 -5.05,2.829 -9.09,3.637c-4.041,0.404 -8.485,0.808 -13.334,1.212l-13.939,-0c-4.445,-0.404 -8.485,-0.606 -12.121,-0.606l-156.364,-0c-2.424,-0 -4.646,0.404 -6.667,1.212c-3.636,1.616 -6.06,3.232 -7.272,4.849c-0.808,0.808 -2.021,2.424 -3.637,4.848c-1.212,2.02 -1.818,4.04 -1.818,6.061c0.404,2.424 0.404,4.848 0,7.272c0,2.021 0.202,4.243 0.606,6.667c1.212,9.697 3.434,17.778 6.667,24.242c3.636,6.061 8.889,11.516 15.757,16.364c2.829,2.02 5.859,3.434 9.091,4.242c3.637,0.405 7.071,1.213 10.303,2.425c3.233,0.808 7.475,1.414 12.728,1.818c5.656,0.404 10.707,0.202 15.151,-0.606l5.455,-0c4.04,-0.808 7.878,-1.616 11.515,-2.424c3.636,-1.213 7.272,-2.425 10.909,-3.637c4.444,-2.02 9.495,-4.646 15.151,-7.879c5.657,-3.232 10.101,-6.464 13.334,-9.697c2.424,-2.828 5.05,-5.454 7.878,-7.878c2.829,-2.829 5.859,-4.849 9.091,-6.061c4.445,-2.02 9.697,-2.828 15.758,-2.424l24.848,-0c2.829,-0.404 5.253,-0.202 7.273,0.606l6.061,-0c3.636,0.808 6.262,1.818 7.879,3.03c1.212,0.808 1.616,2.626 1.212,5.455c-0,2.828 -0.606,5.252 -1.818,7.272c-3.233,5.657 -6.667,10.708 -10.304,15.152c-3.232,4.444 -6.868,8.889 -10.909,13.333c-11.313,13.334 -23.434,24.041 -36.363,32.122c-12.93,8.08 -28.485,14.949 -46.667,20.606c-4.848,1.616 -9.495,2.626 -13.939,3.03c-4.445,0.404 -9.293,1.212 -14.546,2.424c-1.616,0.404 -3.434,0.404 -5.454,0c-1.616,0 -3.233,0.202 -4.849,0.606l-6.666,0c-2.425,0.808 -4.849,1.01 -7.273,0.606c-2.424,0 -4.647,-0.202 -6.667,-0.606c-3.232,-0.404 -6.06,-0.404 -8.485,0c-2.424,0.404 -5.05,0.202 -7.878,-0.606c-2.021,-0.808 -4.243,-1.212 -6.667,-1.212c-2.424,0 -4.445,-0.404 -6.061,-1.212c-4.444,-0.808 -8.889,-1.818 -13.333,-3.03c-4.04,-0.808 -7.677,-2.223 -10.909,-4.243c-4.041,-1.616 -7.879,-3.03 -11.515,-4.242c-3.637,-1.616 -6.869,-3.435 -9.697,-5.455c-11.313,-8.081 -21.01,-17.374 -29.091,-27.879c-7.677,-10.909 -13.334,-23.434 -16.97,-37.575c-1.212,-4.445 -2.02,-8.889 -2.424,-13.334c-0,-4.848 -0.606,-9.697 -1.818,-14.545l-0,-4.243c0.404,-1.616 0.606,-3.232 0.606,-4.848c-0.404,-4.849 -0.404,-10.101 -0,-15.758c0.808,-5.656 1.616,-11.313 2.424,-16.969c0.404,-2.021 0.606,-4.243 0.606,-6.667c0.404,-2.424 1.01,-4.646 1.818,-6.667l1.818,-7.272l4.849,-14.546c2.828,-6.869 5.454,-13.535 7.879,-20c2.424,-6.464 5.454,-12.525 9.091,-18.182c25.858,-42.02 61.414,-71.717 106.666,-89.091c6.061,-2.424 12.121,-4.04 18.182,-4.848c6.061,-1.212 12.525,-2.626 19.394,-4.242c3.232,-0.404 6.263,-0.607 9.091,-0.607c2.828,0 5.859,-0.202 9.091,-0.606c20.606,-0.404 37.778,2.021 51.515,7.273c13.737,4.849 25.657,11.313 35.758,19.394c3.232,2.424 6.262,5.253 9.09,8.485c3.233,2.828 5.859,5.859 7.879,9.091c0.808,2.02 2.222,3.636 4.243,4.848c2.424,4.445 4.444,9.091 6.06,13.94c2.02,4.444 4.243,9.091 6.667,13.939c1.212,3.636 2.02,7.475 2.424,11.515c0.808,3.637 1.616,7.677 2.424,12.121c0.809,5.253 1.213,10.708 1.213,16.364c0.404,5.657 0.808,11.313 1.212,16.97c-0,3.232 -0.606,6.869 -1.819,10.909c-0.808,3.636 -1.01,7.071 -0.606,10.303l-1.212,6.667Zm-84.242,-35.758c3.636,-4.04 4.848,-8.889 3.636,-14.545c-0.808,-6.061 -1.414,-10.505 -1.818,-13.334c-3.636,-10.909 -9.495,-19.192 -17.576,-24.848c-8.08,-6.061 -20.404,-9.293 -36.969,-9.697c-1.213,0.808 -2.627,1.01 -4.243,0.606c-1.616,-0.404 -3.03,-0.404 -4.242,-0c-2.424,0.808 -4.849,1.414 -7.273,1.818c-2.424,0 -4.646,0.404 -6.667,1.212c-18.99,5.657 -34.343,16.768 -46.06,33.333c-1.212,1.617 -2.626,3.839 -4.243,6.667c-1.616,2.424 -2.828,5.051 -3.636,7.879c-0.808,2.424 -1.212,4.848 -1.212,7.273c-0,2.424 1.01,4.444 3.03,6.06c2.828,2.02 7.071,3.031 12.727,3.031l101.213,-0c6.464,-0.404 10.909,-2.223 13.333,-5.455Z" style="fill-rule:nonzero;"/><path id="path4325" d="M1960.12,173.598c24.242,-0.808 43.636,2.627 58.182,10.304c14.949,7.676 25.454,18.989 31.515,33.939c2.02,4.444 3.232,9.293 3.636,14.545c0.808,4.849 1.414,9.899 1.818,15.152c0.405,3.232 0.405,6.263 0,9.091c-0.404,2.828 -0.404,5.656 0,8.485c-0.808,2.424 -1.01,4.04 -0.606,4.848c-0.404,5.657 -1.212,11.515 -2.424,17.576c-1.212,6.06 -2.424,11.919 -3.636,17.576l-10.303,53.939l-20,98.182c-1.616,7.677 -3.233,15.151 -4.849,22.424c-1.616,6.869 -5.454,11.313 -11.515,13.333c-2.424,0.809 -5.252,1.213 -8.485,1.213l-42.424,-0c-4.848,-0 -9.091,-0.202 -12.727,-0.607c-3.637,-0.808 -6.263,-2.626 -7.879,-5.454c-1.212,-2.424 -1.616,-5.455 -1.212,-9.091c0.808,-4.04 1.616,-8.283 2.424,-12.727l8.485,-42.424l18.182,-90.304c2.828,-14.949 4.848,-28.686 6.06,-41.212c1.617,-12.929 0.202,-23.838 -4.242,-32.727c-4.04,-8.081 -11.111,-13.737 -21.212,-16.97c-2.02,-0.808 -4.243,-1.212 -6.667,-1.212c-2.02,0 -4.04,-0.404 -6.06,-1.212c-2.021,-0.404 -4.647,-0.404 -7.879,0c-2.828,0 -5.051,0.202 -6.667,0.606c-2.02,0.404 -3.636,0.606 -4.848,0.606c-1.212,0 -2.425,0.202 -3.637,0.606c-9.697,2.425 -17.777,5.657 -24.242,9.697c-14.95,9.293 -25.455,22.829 -31.515,40.606c-5.657,17.778 -10.707,37.778 -15.152,60l-15.151,75.758l-7.273,36.97c-0.808,3.636 -1.616,7.272 -2.424,10.909c-0.808,3.636 -2.02,6.666 -3.637,9.091c-2.828,4.444 -6.666,7.07 -11.515,7.878c-4.444,0.809 -9.899,1.213 -16.363,1.213l-30.303,-0c-4.445,-0 -8.889,-0.202 -13.334,-0.607c-4.444,-0.404 -7.273,-1.818 -8.485,-4.242c-2.424,-3.636 -2.828,-8.889 -1.212,-15.758c1.616,-6.868 3.031,-13.333 4.243,-19.393l16.363,-82.425l26.667,-133.333l6.667,-30.909c0.808,-4.445 1.616,-8.485 2.424,-12.121c0.808,-3.637 2.626,-6.667 5.454,-9.091c0.808,-1.212 2.223,-2.02 4.243,-2.424c2.02,-0.809 4.04,-1.415 6.06,-1.819l3.031,0c2.02,-0.404 4.04,-0.606 6.06,-0.606l32.122,0c3.232,0 6.262,0.202 9.09,0.606c3.233,0 6.061,0.404 8.485,1.212c2.425,1.213 3.839,3.031 4.243,5.455c0.808,2.424 1.212,5.253 1.212,8.485c-0,1.616 -0.202,3.03 -0.606,4.242c-0.404,1.212 -0.404,2.425 -0,3.637c0.404,2.02 0.808,3.232 1.212,3.636c0.808,0.404 1.818,1.01 3.03,1.818c4.041,0.404 7.879,-1.01 11.515,-4.242c3.637,-3.637 7.273,-6.465 10.909,-8.485c12.526,-8.081 25.859,-14.546 40,-19.394c4.041,-1.212 7.879,-2.02 11.516,-2.424c4.04,-0.404 8.484,-1.01 13.333,-1.818c1.212,-0.404 3.03,-0.404 5.454,-0c2.425,-0 4.041,-0.202 4.849,-0.607Z" style="fill-rule:nonzero;"/><path id="path4328" d="M2110.19,173.122c0.404,0.323 0.606,1.01 0.606,2.061c-0,1.05 -0.202,2.02 -0.606,2.909l-0.121,0.97c-0.324,0.727 -0.687,1.333 -1.091,1.818c-0.323,0.404 -0.849,0.727 -1.576,0.969c-0.727,0.162 -1.737,0.243 -3.03,0.243c-1.293,-0.081 -2.384,-0.121 -3.273,-0.121l-1.818,-0c-0.404,0.161 -0.768,0.202 -1.091,0.121c-0.323,-0.081 -0.647,-0.041 -0.97,0.121c-0.889,0.323 -1.656,1.091 -2.303,2.303c-0.242,0.404 -0.404,0.889 -0.485,1.455c-0.08,0.565 -0.161,1.131 -0.242,1.697l-5.818,28.606c-0.081,0.404 -0.121,0.767 -0.121,1.091c-0,0.323 -0.081,0.646 -0.243,0.969l-0.242,0.97c-0.081,0.242 -0.162,0.485 -0.243,0.727c0,0.243 -0.121,0.445 -0.363,0.606c-0.324,0.647 -0.849,1.091 -1.576,1.334c-0.404,0.161 -0.889,0.242 -1.455,0.242l-5.454,0c-1.374,0 -2.303,-0.323 -2.788,-0.97c-0.243,-0.485 -0.323,-1.05 -0.243,-1.697c0.162,-0.646 0.324,-1.373 0.485,-2.181l5.697,-28.607c0.081,-0.404 0.162,-0.808 0.243,-1.212c0.161,-0.404 0.202,-0.767 0.121,-1.091l0.242,-1.697c0.081,-1.292 -0.323,-2.101 -1.212,-2.424c-0.727,-0.404 -1.818,-0.565 -3.273,-0.485c-1.373,0.081 -2.585,0.122 -3.636,0.122c-0.404,-0 -0.808,0.04 -1.212,0.121c-0.323,-0 -0.606,-0.041 -0.848,-0.121c-0.324,-0.162 -0.607,-0.202 -0.849,-0.122c-0.242,0 -0.485,-0.04 -0.727,-0.121c-0.808,-0.404 -1.172,-1.05 -1.091,-1.939c0.081,-0.889 0.242,-1.94 0.485,-3.152c0.081,-0.485 0.161,-0.929 0.242,-1.333c0.162,-0.404 0.364,-0.808 0.606,-1.212c0.243,-0.404 0.566,-0.687 0.97,-0.849c0.404,-0.242 0.808,-0.444 1.212,-0.606c0.242,-0.081 0.404,-0.081 0.485,0c0.161,0 0.363,-0.04 0.606,-0.121l32.364,0c0.727,0 1.414,0.04 2.06,0.121c0.647,0 1.172,0.162 1.576,0.485Zm64.485,0.243c0.323,0.565 0.404,1.212 0.242,1.939c-0.081,0.727 -0.202,1.535 -0.363,2.424l-7.879,39.394c-0.162,0.889 -0.364,1.697 -0.606,2.424c-0.162,0.647 -0.445,1.212 -0.849,1.697c-0.565,0.647 -1.454,0.97 -2.666,0.97l-3.394,0c-0.485,0 -1.01,0.04 -1.576,0.121c-0.485,0 -0.889,-0.081 -1.212,-0.242c-0.728,-0.243 -1.172,-0.606 -1.334,-1.091c-0.08,-0.485 -0.121,-1.091 -0.121,-1.818l0.364,-2.061c-0,-0.242 0.04,-0.525 0.121,-0.848c0.081,-0.404 0.162,-0.768 0.242,-1.091l3.152,-15.394c0.162,-0.97 0.323,-1.94 0.485,-2.909c0.242,-0.97 0.363,-1.859 0.363,-2.667c-0.08,-0.404 -0.121,-0.727 -0.121,-0.97c0,-0.323 -0.121,-0.565 -0.363,-0.727c-0.081,-0.081 -0.202,-0.121 -0.364,-0.121c-0.242,0.161 -0.525,0.323 -0.849,0.485c-0.808,0.969 -1.535,2.06 -2.181,3.272c-0.647,1.213 -1.334,2.384 -2.061,3.516c-1.454,2.505 -2.869,5.05 -4.242,7.636c-1.374,2.505 -2.788,4.97 -4.243,7.394c-0.646,1.131 -1.333,2.424 -2.06,3.879c-0.728,1.373 -1.576,2.384 -2.546,3.03c-0.485,0.323 -1.05,0.525 -1.697,0.606l-3.879,0c-0.404,-0.162 -0.767,-0.283 -1.091,-0.364c-0.323,-0.161 -0.606,-0.363 -0.848,-0.606c-0.242,-0.242 -0.404,-0.565 -0.485,-0.969c-0.081,-0.404 -0.161,-0.808 -0.242,-1.212c-0.243,-0.728 -0.404,-1.455 -0.485,-2.182c-0.081,-0.808 -0.202,-1.616 -0.364,-2.425c-0.485,-2.343 -0.889,-4.727 -1.212,-7.151c-0.323,-2.505 -0.727,-4.929 -1.212,-7.273c-0.242,-1.374 -0.485,-2.747 -0.727,-4.121c-0.162,-1.374 -0.606,-2.545 -1.334,-3.515c-0.161,-0 -0.282,0.04 -0.363,0.121l-0.243,0c-0.404,0.323 -0.687,0.687 -0.848,1.091c-0.243,0.404 -0.404,0.808 -0.485,1.212c0,0.323 -0.081,0.687 -0.242,1.091l-0.364,2.061c-0.162,0.323 -0.283,0.646 -0.364,0.969c-0.08,0.324 -0.121,0.606 -0.121,0.849l-2.909,14.06c-0.162,1.051 -0.404,2.344 -0.727,3.879c-0.243,1.455 -0.606,2.505 -1.091,3.152c-0.243,0.161 -0.485,0.363 -0.727,0.606c-0.162,0.161 -0.364,0.283 -0.607,0.363c-0.404,0.162 -0.888,0.283 -1.454,0.364l-4.849,0c-1.05,0 -1.858,-0.242 -2.424,-0.727c-0.404,-0.323 -0.606,-0.849 -0.606,-1.576c0.081,-0.727 0.202,-1.535 0.364,-2.424l8,-40c0.161,-0.728 0.323,-1.414 0.485,-2.061c0.242,-0.727 0.525,-1.293 0.848,-1.697c0.404,-0.565 1.051,-0.929 1.94,-1.091c0.242,-0.081 0.404,-0.081 0.484,0c0.162,0 0.364,-0.04 0.606,-0.121l10.546,0c0.808,0 1.414,0.202 1.818,0.606c0.647,0.485 1.01,1.253 1.091,2.303c0.162,1.051 0.364,2.02 0.606,2.909c0.404,2.263 0.808,4.566 1.212,6.909c0.404,2.263 0.808,4.566 1.212,6.909c0.324,1.213 0.566,2.465 0.728,3.758c0.242,1.293 0.484,2.545 0.727,3.758c0.161,0.484 0.283,1.01 0.363,1.575c0.162,0.485 0.485,0.808 0.97,0.97c0.404,0.162 0.768,0.081 1.091,-0.242c0.404,-0.324 0.687,-0.606 0.849,-0.849c0.808,-0.889 1.454,-1.818 1.939,-2.788c0.566,-1.05 1.131,-2.06 1.697,-3.03c1.697,-2.667 3.273,-5.374 4.727,-8.121c1.536,-2.829 3.152,-5.576 4.849,-8.243c0.646,-1.131 1.293,-2.303 1.939,-3.515c0.727,-1.293 1.697,-2.182 2.909,-2.667c0.566,-0.161 1.131,-0.242 1.697,-0.242l8.727,0c0.485,-0.081 0.93,-0.081 1.334,0l0.606,0c0.323,0.162 0.646,0.283 0.969,0.364c0.405,0.081 0.647,0.242 0.728,0.485Z" style="fill-rule:nonzero;"/></svg>